<?xml version="1.0" standalone="no"?>
<!DOCTYPE svg PUBLIC "-//W3C//DTD SVG 20010904//EN"
 "http://www.w3.org/TR/2001/REC-SVG-20010904/DTD/svg10.dtd">
<svg version="1.0" xmlns="http://www.w3.org/2000/svg"
 width="512.000000pt" height="512.000000pt" viewBox="0 0 512.000000 512.000000"
 preserveAspectRatio="xMidYMid meet">

<g transform="translate(0.000000,512.000000) scale(0.100000,-0.100000)"
fill="#000000" stroke="none">
<path d="M2408 5113 c-10 -2 -18 -11 -18 -19 0 -19 -20 -18 -36 4 -13 16 -15
16 -27 0 -11 -13 -16 -15 -26 -5 -9 9 -16 9 -30 0 -10 -7 -28 -9 -40 -6 -12 3
-21 1 -21 -6 0 -6 7 -11 15 -11 8 0 15 -7 15 -15 0 -8 7 -15 15 -15 8 0 15 -4
15 -10 0 -5 -7 -10 -15 -10 -8 0 -15 -7 -15 -15 0 -8 -4 -15 -10 -15 -13 0
-13 13 1 27 16 16 -35 63 -71 63 -38 0 -60 -9 -60 -26 0 -17 -12 -18 -27 -3
-15 15 -73 1 -73 -17 0 -17 -27 -19 -33 -1 -3 9 -9 9 -28 0 -13 -6 -41 -14
-61 -18 -21 -3 -41 -11 -45 -18 -5 -7 -17 -19 -27 -27 -18 -14 -19 -13 -13 3
6 15 3 17 -16 12 -12 -4 -27 -13 -33 -21 -6 -8 -18 -12 -26 -9 -19 7 -208 -72
-208 -87 0 -5 -9 -8 -21 -8 -15 0 -19 -4 -15 -16 5 -13 1 -15 -21 -9 -23 5
-25 4 -14 -9 7 -8 10 -20 6 -26 -10 -16 -23 -12 -27 11 -3 18 -5 19 -23 5 -17
-13 -18 -17 -5 -25 12 -8 12 -13 2 -23 -9 -9 -12 -9 -12 5 0 21 -29 22 -36 2
-4 -10 -13 -13 -24 -10 -16 5 -79 -36 -88 -57 -2 -5 -10 -8 -18 -8 -27 0 -212
-137 -213 -157 -1 -7 -10 -13 -21 -13 -27 0 -27 -36 0 -43 11 -3 20 -12 20
-21 0 -22 13 -20 28 4 16 25 32 26 32 1 0 -11 8 -21 17 -23 10 -2 -17 -3 -59
-3 -43 0 -73 2 -68 3 19 7 11 42 -10 42 -13 0 -20 -7 -20 -20 0 -14 -10 -22
-32 -28 -18 -4 -38 -18 -44 -30 -6 -12 -13 -19 -16 -17 -10 10 -222 -230 -272
-307 -17 -25 -17 -28 -2 -28 9 0 19 -7 22 -15 4 -8 10 -15 15 -15 5 0 9 7 9
15 0 8 9 15 20 15 11 0 20 -7 20 -15 0 -8 -8 -15 -18 -15 -23 0 -42 -19 -42
-42 0 -11 -7 -18 -20 -18 -13 0 -20 7 -20 20 0 13 7 20 20 20 11 0 20 5 20 10
0 6 -9 10 -19 10 -11 0 -21 6 -24 13 -2 6 -8 8 -13 4 -5 -4 -2 -12 6 -18 13
-8 13 -11 -2 -20 -10 -5 -18 -16 -18 -23 0 -8 -9 -16 -21 -19 -12 -3 -18 -10
-14 -16 9 -16 35 -13 35 4 0 8 7 15 15 15 8 0 15 -7 15 -15 0 -23 25 -18 46
10 18 25 54 34 54 15 0 -14 37 -12 43 3 4 9 7 9 14 0 6 -8 29 -11 68 -8 38 2
53 0 40 -5 -11 -4 -30 -6 -43 -3 -16 4 -22 1 -22 -11 0 -20 -29 -21 -36 -1 -9
22 -24 18 -24 -5 0 -11 5 -20 10 -20 6 0 10 -7 10 -15 0 -9 9 -15 21 -15 24 0
21 -23 -4 -28 -10 -2 -17 3 -17 12 0 9 -4 16 -10 16 -5 0 -10 -7 -10 -15 0 -8
-9 -15 -20 -15 -11 0 -20 7 -20 15 0 8 9 15 20 15 11 0 20 7 20 15 0 8 -9 15
-20 15 -11 0 -20 -7 -20 -15 0 -8 -9 -15 -20 -15 -11 0 -20 7 -20 15 0 8 -4
15 -10 15 -5 0 -10 -7 -10 -15 0 -8 -9 -15 -20 -15 -11 0 -20 7 -20 15 0 8 -7
15 -15 15 -23 0 -18 -12 20 -47 19 -18 35 -35 35 -38 0 -13 -38 -3 -44 11 -3
8 -10 12 -16 9 -15 -9 -12 -25 5 -25 8 0 15 -7 15 -15 0 -20 10 -18 38 4 23
20 29 41 12 41 -5 0 -10 7 -10 15 0 21 5 19 35 -11 25 -25 25 -27 8 -40 -38
-30 -77 -47 -81 -35 -2 6 -10 11 -17 11 -7 0 -15 7 -19 15 -3 8 -12 15 -21 15
-21 0 -19 9 8 31 l22 19 -23 6 c-12 3 -22 13 -22 20 0 8 -4 14 -10 14 -5 0
-10 -7 -10 -15 0 -8 5 -15 10 -15 6 0 10 -7 10 -15 0 -8 -4 -15 -10 -15 -5 0
-10 -7 -10 -15 0 -8 5 -15 10 -15 14 0 12 -28 -2 -33 -8 -2 -9 -8 -4 -13 5 -5
11 -4 13 4 7 17 40 15 47 -4 8 -21 9 -21 -15 -20 -31 1 -35 -22 -5 -30 16 -4
38 1 63 14 49 26 99 42 133 42 14 0 35 7 46 15 25 19 44 19 44 -1 0 -11 6 -15
20 -11 11 3 20 1 20 -4 0 -5 -20 -9 -45 -9 -35 0 -43 -3 -39 -15 4 -10 -3 -18
-19 -24 -14 -5 -27 -16 -30 -23 -2 -7 -8 -9 -13 -5 -5 5 -1 14 9 21 19 14 23
36 7 36 -5 0 -10 -7 -10 -15 0 -8 -9 -15 -20 -15 -12 0 -20 7 -20 17 0 13 -3
14 -11 6 -8 -8 -6 -17 9 -34 25 -25 21 -39 -8 -32 -15 4 -20 0 -20 -16 0 -12
-6 -21 -15 -21 -8 0 -15 -4 -15 -10 0 -5 -9 -10 -20 -10 -13 0 -20 7 -20 20 0
12 7 20 16 20 8 0 22 6 30 14 16 17 19 46 4 46 -5 0 -10 -10 -10 -21 0 -17 -5
-20 -24 -17 -16 3 -23 1 -20 -7 3 -6 -2 -18 -11 -25 -19 -16 -19 -30 -1 -30 8
0 17 -7 20 -16 9 -23 8 -24 -14 -24 -11 0 -20 -7 -20 -15 0 -8 -9 -15 -20 -15
-11 0 -20 7 -20 15 0 8 -4 15 -10 15 -5 0 -10 -7 -10 -15 0 -8 5 -15 10 -15 6
0 10 -7 10 -15 0 -8 -4 -15 -10 -15 -5 0 -10 -7 -10 -15 0 -21 13 -19 35 5 10
11 21 20 25 20 4 0 34 16 66 35 56 34 109 51 71 23 -11 -9 -14 -18 -7 -28 7
-12 13 -10 34 13 14 15 35 27 48 27 13 0 39 13 58 28 33 28 56 36 125 48 l30
6 -30 -26 c-34 -29 -19 -34 31 -10 26 12 38 14 48 5 7 -6 71 -13 150 -16 120
-4 137 -3 143 11 3 9 1 25 -5 35 -16 25 -15 36 3 36 8 0 12 -4 9 -8 -2 -4 0
-10 5 -13 11 -7 -20 -154 -35 -164 -6 -4 -16 -29 -23 -57 -7 -27 -16 -54 -20
-60 -5 -5 -14 -41 -21 -80 -7 -38 -16 -79 -22 -90 -12 -26 -6 -160 7 -160 6 0
11 29 12 65 4 105 11 130 35 130 17 0 19 -4 13 -22 -4 -13 -9 -52 -12 -87 l-6
-64 29 7 c16 4 48 9 72 11 23 2 48 7 55 10 6 4 3 -1 -7 -9 -11 -9 -25 -16 -32
-16 -7 0 -14 -3 -16 -7 -5 -13 -91 -70 -115 -77 -13 -4 -23 -12 -23 -17 0 -11
17 -12 22 -1 4 9 90 44 95 38 2 -2 -19 -21 -47 -42 -61 -47 -64 -64 -10 -64
45 0 55 -21 20 -42 -26 -16 -26 -35 1 -43 15 -5 19 -13 15 -29 -9 -38 12 -90
54 -131 22 -21 40 -44 40 -50 0 -12 42 -55 53 -55 4 0 7 18 7 40 0 23 5 40 11
40 8 0 8 4 0 14 -8 10 -9 16 -1 21 5 3 10 14 10 24 0 21 22 71 32 71 4 0 10
20 14 45 5 34 9 43 18 36 8 -7 17 -5 28 8 8 10 26 25 38 34 l24 17 -22 23
c-26 27 -20 37 20 37 35 0 68 27 49 40 -9 5 -6 9 9 13 15 4 21 11 17 21 -5 12
2 10 28 -7 22 -14 30 -24 22 -29 -7 -4 -8 -8 -3 -8 5 0 25 12 45 28 38 28 79
54 121 74 14 7 29 18 33 25 4 7 17 13 27 13 10 0 22 5 25 10 3 6 16 10 29 10
12 0 26 4 31 8 6 5 35 14 65 21 30 8 60 17 65 21 6 4 18 10 27 13 25 9 12 -18
-15 -31 -16 -8 -18 -11 -6 -11 9 -1 29 9 43 20 26 21 38 22 237 22 122 0 214
-5 221 -10 7 -6 34 -13 61 -16 38 -5 47 -4 47 8 0 9 10 15 25 15 28 0 29 2 16
50 -9 32 -9 33 4 15 43 -62 41 -60 47 -37 4 14 2 19 -7 15 -8 -2 -18 5 -24 16
-16 29 -13 38 12 36 12 -1 28 2 35 8 8 7 16 7 20 1 4 -5 18 -10 32 -12 18 -2
21 0 11 6 -14 10 -14 12 49 81 15 17 27 38 26 48 -1 15 8 19 52 21 83 5 61 22
-30 23 l-83 1 55 11 c54 11 54 12 18 15 -57 5 -46 19 22 26 55 6 59 8 48 26
-15 24 -4 37 17 20 13 -11 18 -10 28 3 7 9 30 18 52 20 22 2 51 9 65 14 17 7
31 7 45 0 14 -7 16 -12 6 -15 -7 -2 -17 2 -22 9 -7 11 -9 11 -9 1 0 -21 29
-26 49 -8 16 15 19 14 42 -10 23 -25 23 -26 3 -20 -13 4 -26 1 -34 -9 -10 -12
-10 -15 2 -15 8 0 30 -11 49 -25 22 -17 44 -25 64 -23 40 3 135 -12 135 -21 0
-5 35 -16 78 -26 42 -10 84 -22 92 -26 8 -5 35 -17 60 -28 45 -21 60 -29 115
-65 29 -19 29 -19 13 0 -9 10 -23 37 -32 59 l-16 40 26 -30 c14 -16 32 -43 39
-60 11 -24 14 -26 15 -9 0 11 -5 25 -11 31 -14 14 -2 56 14 50 7 -2 13 -18 15
-35 4 -38 22 -43 22 -7 0 14 4 25 9 25 15 0 20 41 9 69 -10 24 -11 25 -18 6
-7 -15 -9 -10 -9 21 -1 40 -23 74 -49 74 -7 0 -12 5 -12 10 0 6 -4 10 -10 10
-5 0 -10 -9 -10 -20 0 -11 4 -20 9 -20 5 0 11 -8 14 -17 2 -10 8 -26 12 -36 7
-17 6 -18 -14 -6 -11 8 -21 20 -21 27 0 7 -10 17 -22 22 -13 5 -17 9 -10 9 17
1 15 21 -3 21 -8 0 -15 6 -15 13 0 8 -4 7 -10 -3 -8 -13 -10 -12 -10 3 0 19
-30 24 -30 5 0 -7 -9 -2 -20 12 -17 21 -21 23 -30 10 -8 -11 -9 -9 -5 11 4 17
1 30 -9 38 -9 8 -16 21 -16 30 0 9 -5 22 -10 27 -9 9 0 48 17 73 1 2 9 -4 18
-13 18 -17 45 -22 45 -7 0 6 -4 13 -10 16 -5 3 -15 15 -21 27 -8 15 -8 19 0
14 15 -10 -5 43 -25 66 -17 18 -16 89 2 95 6 2 17 -18 24 -44 6 -26 16 -58 22
-70 6 -11 11 -46 12 -77 0 -31 4 -56 9 -56 4 0 7 8 7 17 0 13 3 14 12 5 8 -8
8 -15 -1 -26 -10 -11 -9 -19 1 -35 7 -12 16 -21 20 -21 5 0 8 -12 8 -26 0 -14
-4 -23 -10 -19 -5 3 -10 1 -10 -5 0 -7 6 -10 13 -8 16 6 22 95 7 113 -6 8 -14
40 -17 72 -3 32 -9 63 -13 68 -4 6 -11 37 -15 70 -4 33 -10 71 -12 85 -3 14
-5 51 -5 83 0 42 -4 57 -14 57 -8 0 -14 7 -14 15 0 14 3 13 24 -2 16 -12 24
-28 24 -45 -1 -14 9 -47 21 -72 11 -25 21 -52 21 -60 0 -7 7 -19 15 -26 8 -7
15 -19 15 -26 0 -8 5 -14 11 -14 14 0 3 81 -16 125 -27 60 -45 128 -40 146 4
13 1 19 -8 19 -9 0 -18 6 -20 13 -3 6 -3 -3 0 -22 4 -24 3 -32 -5 -27 -7 4
-12 13 -12 20 0 8 -7 19 -15 26 -18 15 -19 27 -2 33 6 2 4 3 -5 2 -10 -2 -21
1 -24 6 -3 5 0 9 5 9 6 0 11 6 11 14 0 7 9 16 20 19 11 3 20 10 20 16 0 18
-24 13 -43 -9 -9 -11 -21 -20 -27 -20 -5 0 -10 9 -10 20 0 11 -4 20 -9 20 -5
0 -8 -18 -8 -40 1 -22 5 -40 10 -40 4 0 7 -8 7 -17 0 -14 -3 -13 -16 5 -9 13
-13 29 -10 37 3 8 -3 16 -12 19 -9 3 -26 19 -37 36 -11 16 -23 30 -27 30 -5 0
-8 6 -8 13 0 24 -47 60 -70 54 -16 -4 -20 -2 -16 10 3 8 6 19 6 24 0 5 7 9 15
9 8 0 15 7 15 15 0 8 7 15 15 15 9 0 18 7 21 15 8 20 30 19 39 -2 6 -17 7 -17
19 0 16 20 46 23 46 3 0 -7 10 -17 23 -20 21 -6 21 -7 4 -17 -15 -9 -22 -7
-33 8 -13 17 -15 17 -28 1 -18 -24 -31 -23 -43 5 l-10 22 -7 -22 c-4 -13 -14
-23 -22 -23 -8 0 -14 -7 -14 -17 0 -15 1 -15 18 0 24 22 30 21 53 -5 22 -28
24 -48 4 -48 -8 0 -15 7 -15 15 0 8 -4 15 -10 15 -17 0 -11 -14 21 -53 33 -41
43 -44 65 -23 16 17 19 46 4 46 -5 0 -10 7 -10 15 0 8 -9 15 -20 15 -13 0 -20
7 -20 20 0 13 7 20 20 20 12 0 20 -7 20 -16 0 -9 9 -18 20 -21 11 -3 20 -12
20 -19 0 -8 5 -14 10 -14 14 0 12 -38 -2 -43 -7 -2 -10 -8 -6 -12 11 -11 68
51 67 72 -1 17 -2 17 -6 1 -5 -19 -43 -25 -43 -8 0 6 -9 21 -21 33 l-20 22 20
3 c12 2 21 10 21 18 0 8 9 14 20 14 11 0 20 -7 20 -15 0 -9 -9 -15 -21 -15
-14 0 -19 -5 -17 -17 6 -30 32 -20 42 15 6 21 15 32 27 32 11 0 19 7 19 15 0
8 7 15 15 15 8 0 15 9 15 20 0 11 -7 20 -15 20 -22 0 -18 17 8 35 l22 15 -22
6 c-14 4 -23 14 -23 25 0 12 -7 19 -19 19 -11 0 -22 6 -24 13 -4 10 -6 10 -6
0 -1 -7 -10 -13 -21 -13 -13 0 -20 -7 -20 -19 0 -11 -6 -21 -12 -24 -8 -2 -9
-8 -4 -13 5 -5 11 -4 13 4 3 6 13 12 23 12 10 0 21 -6 23 -12 4 -10 6 -10 6 0
2 21 41 14 41 -8 0 -13 -7 -20 -19 -20 -11 0 -22 -6 -24 -12 -4 -10 -6 -10 -6
0 -1 6 -10 12 -20 12 -11 0 -22 -6 -25 -12 -5 -10 -7 -10 -12 0 -3 6 -14 12
-25 12 -12 0 -19 7 -19 20 0 11 5 20 10 20 6 0 10 9 10 20 0 13 7 20 20 20 11
0 20 6 20 14 0 8 6 16 13 19 6 2 2 3 -9 1 -15 -3 -23 2 -27 16 -3 11 -10 20
-16 20 -16 0 -27 -33 -13 -38 15 -5 16 -32 2 -32 -5 0 -10 6 -10 14 0 7 -9 16
-20 19 -11 3 -20 10 -20 16 0 6 9 11 20 11 11 0 20 6 20 13 -1 18 -84 57 -109
50 -14 -4 -21 -1 -21 9 0 17 -61 41 -84 32 -11 -4 -16 -1 -16 10 0 9 -6 13
-13 10 -8 -3 -20 2 -27 11 -16 19 -40 20 -40 0 0 -8 -4 -15 -10 -15 -5 0 -10
6 -10 14 0 18 -63 51 -68 36 -6 -16 -22 -12 -22 5 0 21 -43 36 -80 29 -18 -4
-30 -2 -30 4 0 5 -13 15 -30 21 -18 6 -30 6 -30 0 0 -5 -9 -9 -19 -9 -11 0
-21 -6 -24 -12 -2 -7 -8 -10 -12 -6 -4 4 0 14 9 23 35 35 1 35 -36 0 -28 -26
-48 -32 -48 -15 0 6 6 10 14 10 7 0 16 9 19 20 4 16 0 20 -19 20 -17 0 -24 -6
-24 -20 0 -11 -7 -20 -15 -20 -8 0 -15 -4 -15 -10 0 -14 -37 -12 -44 3 -5 10
-7 10 -12 0 -8 -17 -32 -16 -50 1 -17 18 -18 43 -1 49 9 4 9 7 -1 18 -11 12
-16 11 -28 -5 -12 -17 -14 -18 -14 -3 0 10 -8 17 -20 17 -11 0 -20 -7 -20 -15
0 -8 7 -15 15 -15 8 0 15 -9 15 -20 0 -11 5 -20 10 -20 6 0 10 -9 10 -20 0
-11 6 -20 13 -20 14 0 47 -31 47 -43 0 -4 -4 -7 -10 -7 -5 0 -10 6 -10 13 0 8
-11 19 -24 25 -13 6 -27 20 -31 31 -8 27 -22 26 -46 -1 -24 -30 -24 -38 2 -38
15 0 19 -5 15 -15 -3 -9 1 -18 9 -21 8 -4 15 -11 15 -17 0 -5 11 -25 26 -44
19 -25 22 -33 10 -33 -9 0 -16 4 -16 10 0 11 -26 43 -77 98 -37 38 -40 50 -15
59 9 4 23 12 30 19 14 15 16 44 2 44 -5 0 -10 8 -10 18 0 15 -15 17 -172 18
-95 1 -181 0 -190 -3z m52 -18 c0 -8 9 -15 20 -15 11 0 20 7 20 15 0 8 5 15
10 15 6 0 10 -7 10 -15 0 -8 -4 -15 -10 -15 -5 0 -10 -9 -10 -20 0 -13 -7 -20
-20 -20 -13 0 -20 7 -20 20 0 11 -7 20 -15 20 -21 0 -19 -22 5 -43 22 -19 50
-23 50 -7 0 6 5 10 10 10 15 0 12 -29 -4 -46 -17 -16 -46 -19 -46 -4 0 6 -7
10 -15 10 -8 0 -15 -4 -15 -10 0 -5 6 -10 14 -10 7 0 16 -10 20 -22 5 -21 9
-19 54 30 l48 52 42 -41 c23 -22 42 -43 42 -46 0 -4 -8 -15 -17 -25 -15 -17
-15 -20 -3 -28 8 -6 10 -10 4 -10 -6 0 -20 11 -30 25 -19 25 -44 34 -44 15 0
-5 6 -13 13 -17 8 -4 22 -21 33 -38 l19 -30 -28 18 c-15 10 -40 31 -56 47 -32
34 -41 37 -41 15 0 -8 3 -15 8 -15 10 0 65 -70 59 -77 -9 -9 -47 17 -47 32 0
17 -16 20 -25 5 -11 -18 -26 -10 -20 10 4 12 2 20 -5 20 -6 0 -8 -4 -5 -10 13
-22 -22 -8 -52 20 -18 17 -41 30 -53 30 -18 0 -19 2 -8 20 15 24 34 26 42 5 3
-8 10 -15 16 -15 5 0 10 7 10 15 0 8 -6 15 -14 15 -8 0 -16 5 -18 11 -3 8 -11
8 -27 -2 -19 -11 -25 -11 -28 -1 -6 14 -33 16 -33 2 0 -5 7 -10 15 -10 8 0 15
-7 15 -17 0 -15 -1 -15 -18 0 -10 10 -24 17 -30 17 -18 0 -14 28 6 39 14 9 14
12 4 20 -8 4 -12 17 -9 27 4 17 6 17 12 -3 4 -13 14 -23 21 -23 8 0 14 -4 14
-10 0 -5 7 -10 15 -10 8 0 15 5 15 10 0 6 7 10 15 10 8 0 15 -4 15 -10 0 -5 7
-10 15 -10 8 0 15 5 15 10 0 6 -7 10 -15 10 -8 0 -15 9 -15 20 0 13 7 20 20
20 11 0 20 7 20 15 0 8 7 15 15 15 8 0 15 -7 15 -15z m122 0 c0 -5 -5 -11 -11
-13 -6 -2 -11 4 -11 13 0 9 5 15 11 13 6 -2 11 -8 11 -13z m78 0 c0 -8 -4 -15
-9 -15 -5 0 -14 7 -21 15 -10 13 -9 15 9 15 12 0 21 -6 21 -15z m76 -7 c26
-26 31 -48 10 -48 -8 0 -17 -7 -20 -16 -3 -9 -13 -14 -20 -11 -8 3 -17 1 -19
-6 -2 -7 -2 -2 0 11 3 22 -22 33 -29 12 -2 -6 -8 -6 -18 0 -13 8 -12 10 3 10
9 0 17 7 17 15 0 8 7 15 15 15 8 0 15 -7 15 -15 0 -8 9 -15 20 -15 13 0 20 7
20 20 0 11 -7 20 -15 20 -8 0 -15 7 -15 15 0 21 8 19 36 -7z m-376 -28 c0 -11
-7 -20 -15 -20 -8 0 -15 9 -15 20 0 11 7 20 15 20 8 0 15 -9 15 -20z m260 -6
c0 -8 -4 -14 -10 -14 -5 0 -10 9 -10 21 0 11 5 17 10 14 6 -3 10 -13 10 -21z
m-450 7 c0 -17 -18 -21 -24 -6 -3 9 0 15 9 15 8 0 15 -4 15 -9z m378 -3 c-6
-18 -28 -21 -28 -4 0 9 7 16 16 16 9 0 14 -5 12 -12z m-408 -28 c0 -5 -7 -10
-15 -10 -8 0 -15 5 -15 10 0 6 7 10 15 10 8 0 15 -4 15 -10z m60 0 c0 -5 -4
-10 -10 -10 -5 0 -10 5 -10 10 0 6 5 10 10 10 6 0 10 -4 10 -10z m970 0 c0 -5
-4 -10 -10 -10 -5 0 -10 5 -10 10 0 6 5 10 10 10 6 0 10 -4 10 -10z m-156 -42
c-3 -4 -12 -8 -20 -8 -8 0 -14 -9 -14 -20 0 -12 7 -20 16 -20 9 0 18 9 21 20
3 11 12 20 19 20 8 0 14 5 14 10 0 6 7 10 15 10 8 0 15 -4 15 -10 0 -5 -7 -10
-15 -10 -18 0 -20 -40 -2 -40 19 -1 79 -87 64 -94 -8 -3 -7 -9 6 -19 23 -19
22 -37 -3 -37 -11 0 -20 7 -20 15 0 9 -10 19 -22 24 l-23 8 23 7 c12 4 22 14
22 22 0 19 -19 18 -26 -1 -7 -17 -34 -20 -34 -4 0 7 7 17 16 23 14 10 13 14
-4 34 -20 23 -42 29 -42 12 0 -6 7 -13 15 -16 22 -9 18 -34 -5 -34 -12 0 -20
7 -20 16 0 10 -6 14 -15 10 -10 -4 -15 1 -15 14 0 11 -7 20 -15 20 -9 0 -19 8
-22 18 -4 9 -11 20 -17 24 -6 4 -7 11 -2 15 5 4 11 2 13 -4 7 -20 37 -15 52 8
10 17 15 19 21 8 5 -7 6 -17 4 -21z m-1096 -4 c15 -15 16 -34 2 -34 -5 0 -10
7 -10 15 0 8 -9 15 -20 15 -13 0 -20 -7 -20 -20 0 -11 -7 -20 -15 -20 -17 0
-20 -16 -5 -25 6 -3 13 1 16 9 3 9 15 16 25 16 25 0 24 -12 -1 -28 -12 -7 -18
-17 -15 -22 15 -24 -34 -7 -50 16 -16 25 -16 28 -1 36 9 5 16 16 16 23 0 8 7
15 15 15 8 0 15 7 15 15 0 16 26 10 48 -11z m52 6 c0 -5 7 -10 15 -10 9 0 15
-9 15 -22 0 -22 0 -22 -25 4 -27 29 -31 38 -15 38 6 0 10 -4 10 -10z m70 0 c0
-5 -7 -10 -15 -10 -8 0 -15 5 -15 10 0 6 7 10 15 10 8 0 15 -4 15 -10z m1116
-4 c8 -8 14 -20 14 -26 0 -6 -6 -18 -14 -26 -8 -8 -20 -14 -26 -14 -15 0 -40
25 -40 40 0 16 23 39 38 40 7 0 20 -6 28 -14z m54 4 c0 -5 9 -10 20 -10 11 0
20 5 20 10 0 6 7 10 15 10 8 0 15 -4 15 -10 0 -5 9 -10 20 -10 13 0 20 -7 20
-20 0 -11 5 -20 10 -20 6 0 10 9 10 20 0 11 7 20 15 20 8 0 15 -9 15 -20 0
-11 7 -20 15 -20 8 0 15 -4 15 -10 0 -5 -7 -10 -15 -10 -8 0 -15 5 -15 10 0
14 -27 12 -34 -2 -5 -10 -7 -10 -12 0 -7 14 -44 16 -44 2 0 -19 -22 -10 -56
24 -35 35 -41 46 -24 46 6 0 10 -4 10 -10z m-1127 -7 c-7 -2 -13 -11 -13 -19
0 -8 -7 -14 -15 -14 -8 0 -15 4 -15 10 0 10 30 30 45 29 6 0 4 -3 -2 -6z
m-363 -53 c0 -5 -7 -10 -15 -10 -8 0 -15 5 -15 10 0 6 7 10 15 10 8 0 15 -4
15 -10z m60 0 c0 -5 -7 -10 -15 -10 -8 0 -15 5 -15 10 0 6 7 10 15 10 8 0 15
-4 15 -10z m190 0 c0 -5 -7 -10 -16 -10 -8 0 -12 5 -9 10 3 6 10 10 16 10 5 0
9 -4 9 -10z m70 0 c0 -5 -7 -10 -15 -10 -8 0 -15 5 -15 10 0 6 7 10 15 10 8 0
15 -4 15 -10z m60 0 c0 -5 -7 -10 -15 -10 -8 0 -15 5 -15 10 0 6 7 10 15 10 8
0 15 -4 15 -10z m55 0 c3 -5 1 -10 -4 -10 -6 0 -11 5 -11 10 0 6 2 10 4 10 3
0 8 -4 11 -10z m1055 0 c0 -5 -4 -10 -10 -10 -5 0 -10 5 -10 10 0 6 5 10 10
10 6 0 10 -4 10 -10z m260 0 c0 -5 -7 -10 -15 -10 -8 0 -15 5 -15 10 0 6 7 10
15 10 8 0 15 -4 15 -10z m-795 -20 c-3 -5 -11 -10 -16 -10 -6 0 -7 5 -4 10 3
6 11 10 16 10 6 0 7 -4 4 -10z m-745 -15 c0 -8 -4 -15 -10 -15 -5 0 -10 7 -10
15 0 8 5 15 10 15 6 0 10 -7 10 -15z m75 5 c3 -6 -2 -13 -12 -17 -10 -4 -21
-11 -25 -17 -4 -6 -10 -8 -13 -4 -7 7 25 48 37 48 4 0 10 -5 13 -10z m62 -7
c2 -6 -4 -13 -14 -17 -10 -3 -24 -9 -30 -12 -7 -3 -13 -1 -13 5 0 6 7 11 15
11 8 0 15 7 15 16 0 17 21 15 27 -3z m73 2 c0 -9 9 -15 21 -15 15 0 19 5 15
15 -3 9 0 15 9 15 8 0 15 -7 15 -16 0 -12 6 -15 24 -10 21 5 23 3 19 -15 -5
-18 -2 -19 23 -13 22 5 26 4 18 -5 -15 -16 -84 -4 -84 15 0 17 -5 17 -31 2
-17 -10 -23 -10 -26 0 -3 6 -13 12 -24 12 -12 0 -16 5 -13 15 4 8 12 15 20 15
8 0 14 -7 14 -15z m1050 5 c0 -5 -7 -10 -15 -10 -8 0 -15 5 -15 10 0 6 7 10
15 10 8 0 15 -4 15 -10z m60 -5 c0 -8 6 -15 14 -15 8 0 16 -7 20 -15 3 -8 12
-15 21 -15 8 0 15 7 15 15 0 8 -9 15 -20 15 -11 0 -20 7 -20 15 0 8 9 15 20
15 11 0 20 -7 20 -15 0 -8 5 -15 10 -15 6 0 10 7 10 15 0 8 7 15 15 15 8 0 15
-7 15 -15 0 -8 7 -15 15 -15 8 0 15 -7 15 -15 0 -8 -7 -15 -15 -15 -8 0 -15
-4 -15 -10 0 -14 -28 -12 -32 2 -3 8 -12 5 -27 -9 -13 -12 -20 -26 -16 -32 9
-16 25 -13 25 4 0 8 5 15 10 15 6 0 10 -7 10 -15 0 -8 7 -15 15 -15 8 0 15 7
15 15 0 8 7 15 15 15 8 0 15 -7 15 -15 0 -8 -7 -15 -15 -15 -8 0 -15 -7 -15
-15 0 -8 7 -15 15 -15 8 0 15 -9 15 -20 0 -12 -7 -20 -16 -20 -11 0 -14 -5 -9
-17 4 -10 10 -24 13 -32 3 -9 1 -12 -6 -7 -7 4 -12 13 -12 19 0 7 -9 18 -20
25 -11 7 -20 18 -20 24 0 7 -18 29 -40 49 -31 28 -37 38 -25 43 19 7 19 26 0
26 -8 0 -15 -4 -15 -10 0 -17 -26 -11 -46 11 -14 16 -15 23 -6 26 6 3 12 11
12 19 0 8 9 14 20 14 11 0 20 -7 20 -15z m176 -12 c-10 -10 -19 5 -10 18 6 11
8 11 12 0 2 -7 1 -15 -2 -18z m78 6 c-3 -5 -12 -9 -20 -9 -22 0 -17 -26 9 -38
l22 -11 -22 0 c-13 -1 -23 4 -23 9 0 6 -7 10 -15 10 -8 0 -15 5 -15 10 0 6 7
13 15 16 8 4 15 12 15 19 0 8 8 11 20 8 11 -3 17 -9 14 -14z m72 -1 c27 -27
30 -38 9 -38 -8 0 -15 -4 -15 -10 0 -15 -29 -12 -46 4 -16 17 -19 36 -4 36 6
0 10 -7 10 -15 0 -8 9 -15 20 -15 27 0 26 26 -1 33 -12 3 -18 10 -14 16 9 15
14 14 41 -11z m-857 -23 c18 -20 20 -25 7 -25 -9 0 -16 5 -16 10 0 6 -7 10
-15 10 -8 0 -15 7 -15 15 0 21 11 18 39 -10z m-1149 -6 c0 -5 -4 -9 -10 -9 -5
0 -10 7 -10 16 0 8 5 12 10 9 6 -3 10 -10 10 -16z m2094 6 c3 -8 12 -15 21
-15 8 0 15 -4 15 -10 0 -5 -7 -10 -15 -10 -8 0 -15 5 -15 10 0 6 -7 10 -15 10
-8 0 -15 -4 -15 -10 0 -5 -7 -10 -15 -10 -8 0 -15 5 -15 10 0 6 7 10 15 10 8
0 15 7 15 15 0 8 4 15 9 15 5 0 11 -7 15 -15z m-2059 -25 c3 -5 1 -10 -4 -10
-6 0 -11 5 -11 10 0 6 2 10 4 10 3 0 8 -4 11 -10z m741 -21 c23 -24 25 -29 9
-23 -24 9 -55 34 -55 46 0 16 16 8 46 -23z m1084 21 c0 -5 -4 -10 -10 -10 -5
0 -10 5 -10 10 0 6 5 10 10 10 6 0 10 -4 10 -10z m-540 -21 c0 -5 -4 -9 -10
-9 -5 0 -10 7 -10 16 0 8 5 12 10 9 6 -3 10 -10 10 -16z m-1380 -20 c0 -6 -4
-7 -10 -4 -5 3 -10 11 -10 16 0 6 5 7 10 4 6 -3 10 -11 10 -16z m149 -13 c28
-29 30 -34 12 -29 -11 3 -21 11 -21 18 0 7 -9 15 -20 18 -11 3 -20 10 -20 16
0 19 15 12 49 -23z m1811 19 c0 -8 9 -15 20 -15 11 0 20 7 20 15 0 8 5 15 10
15 6 0 10 -7 10 -15 0 -8 9 -15 20 -15 11 0 20 7 20 15 0 8 7 15 15 15 8 0 15
-7 15 -15 0 -8 -7 -15 -15 -15 -8 0 -15 -7 -15 -15 0 -8 7 -15 15 -15 8 0 15
-5 15 -11 0 -17 -84 -93 -88 -80 -5 16 -39 13 -46 -4 -3 -8 -12 -15 -21 -15
-8 0 -15 7 -15 15 0 8 -4 15 -10 15 -5 0 -10 9 -10 20 0 23 3 24 31 8 17 -10
23 -10 26 0 7 18 34 15 49 -5 13 -17 13 -17 14 0 0 9 -4 17 -10 17 -5 0 -10 9
-10 20 0 13 -7 20 -20 20 -13 0 -20 -7 -20 -20 0 -13 -7 -20 -20 -20 -13 0
-20 7 -20 20 0 11 -4 20 -10 20 -15 0 -12 17 7 40 21 24 43 26 43 5z m196 0
c4 -8 12 -15 20 -15 8 0 14 -7 14 -15 0 -8 -7 -15 -15 -15 -8 0 -15 -9 -15
-20 0 -11 7 -20 15 -20 8 0 15 -4 15 -9 0 -5 -7 -14 -15 -21 -8 -7 -15 -16
-15 -21 0 -5 7 -9 15 -9 8 0 15 -9 15 -20 0 -11 -7 -20 -15 -20 -8 0 -15 9
-15 20 0 11 -7 20 -15 20 -8 0 -15 -9 -15 -20 0 -13 -7 -20 -20 -20 -11 0 -20
-4 -20 -10 0 -5 -7 -10 -15 -10 -8 0 -15 5 -15 10 0 14 -37 12 -43 -2 -4 -10
-8 -9 -16 2 -9 13 -14 13 -31 2 -11 -7 -26 -10 -32 -6 -7 4 -5 10 6 16 9 5 16
16 16 23 0 8 9 15 20 15 13 0 20 -7 20 -20 0 -11 5 -20 10 -20 6 0 10 9 10 20
0 13 7 20 20 20 11 0 20 5 20 10 0 6 7 10 15 10 8 0 15 -4 15 -10 0 -5 -7 -10
-15 -10 -8 0 -15 -9 -15 -20 0 -11 6 -20 14 -20 7 0 16 9 19 20 3 11 12 20 21
20 9 0 16 5 16 10 0 6 7 10 15 10 8 0 15 9 15 20 0 11 -7 20 -15 20 -8 0 -15
-4 -15 -10 0 -5 -7 -10 -15 -10 -8 0 -15 5 -15 10 0 6 7 10 15 10 8 0 15 9 15
20 0 11 -7 20 -15 20 -8 0 -15 7 -15 15 0 8 7 15 15 15 8 0 15 7 15 15 0 8 5
15 10 15 6 0 13 -7 16 -15z m-755 -27 c11 -21 11 -22 -4 -9 -10 7 -17 17 -17
22 0 15 9 10 21 -13z m279 2 c0 -11 5 -20 11 -20 14 0 7 -42 -8 -48 -7 -2 -13
4 -13 12 0 9 -7 19 -15 22 -15 6 -20 35 -8 47 13 14 33 6 33 -13z m-1710 -6
c0 -17 -22 -14 -28 4 -2 7 3 12 12 12 9 0 16 -7 16 -16z m73 -4 c3 -11 13 -20
22 -20 9 0 15 -5 13 -12 -7 -21 -26 -20 -33 1 -3 12 -13 21 -21 21 -15 0 -19
12 -7 23 11 12 21 8 26 -13z m2187 -30 c0 -13 -7 -20 -20 -20 -19 0 -27 20
-13 33 13 14 33 6 33 -13z m107 -12 c-3 -7 -5 -2 -5 12 0 14 2 19 5 13 2 -7 2
-19 0 -25z m-2527 8 c0 -8 5 -16 12 -18 6 -2 -6 -4 -27 -4 -21 0 -33 2 -26 4
6 2 11 10 11 18 0 8 7 14 15 14 8 0 15 -6 15 -14z m60 -1 c0 -8 -4 -15 -10
-15 -5 0 -10 7 -10 15 0 8 5 15 10 15 6 0 10 -7 10 -15z m1851 -27 c2 -22 5
-32 13 -51 5 -10 6 -21 3 -24 -4 -3 -11 6 -16 20 -5 14 -14 28 -20 31 -12 8
-4 36 10 36 5 0 10 -6 10 -12z m501 -28 c7 -11 21 -20 30 -20 11 0 18 -8 18
-20 0 -11 5 -20 10 -20 6 0 10 9 10 20 0 30 40 27 41 -2 l2 -23 4 23 c6 29 43
31 43 2 0 -13 -7 -20 -20 -20 -11 0 -20 -6 -21 -12 0 -10 -2 -10 -6 0 -6 14
-43 16 -43 2 0 -15 -29 -12 -46 4 -8 8 -14 22 -14 30 0 9 -8 16 -20 16 -13 0
-20 7 -20 20 0 11 4 20 10 20 5 0 15 -9 22 -20z m-2602 -70 c0 -5 -7 -10 -15
-10 -8 0 -15 5 -15 10 0 6 7 10 15 10 8 0 15 -4 15 -10z m60 0 c0 -5 -4 -10
-10 -10 -5 0 -10 5 -10 10 0 6 5 10 10 10 6 0 10 -4 10 -10z m-30 -41 c0 -5
-7 -9 -15 -9 -8 0 -15 -7 -15 -15 0 -8 -7 -15 -15 -15 -8 0 -15 7 -15 15 0 8
6 15 14 15 8 0 17 7 20 16 6 15 26 11 26 -7z m66 6 c7 -18 44 -20 44 -3 0 6 3
8 7 5 7 -8 -25 -47 -39 -47 -4 0 -8 7 -8 15 0 8 -7 15 -15 15 -8 0 -15 7 -15
15 0 8 5 15 10 15 6 0 13 -7 16 -15z m2289 -16 c4 -17 4 -33 1 -36 -3 -4 -6 3
-6 14 0 12 -8 23 -20 26 -26 7 -26 27 -1 27 14 0 21 -9 26 -31z m55 16 c0 -8
-9 -15 -20 -15 -11 0 -20 7 -20 15 0 8 9 15 20 15 11 0 20 -7 20 -15z m-2480
-5 c0 -5 -7 -10 -15 -10 -8 0 -15 -7 -15 -15 0 -8 -7 -15 -15 -15 -20 0 -19 9
3 31 19 20 42 25 42 9z m100 -25 c0 -8 -4 -15 -10 -15 -5 0 -10 7 -10 15 0 8
5 15 10 15 6 0 10 -7 10 -15z m130 0 c0 -8 -7 -15 -15 -15 -16 0 -20 12 -8 23
11 12 23 8 23 -8z m-192 -72 c-4 -22 -22 -20 -26 1 -2 10 3 16 13 16 10 0 15
-7 13 -17z m2482 -2 c16 -30 13 -46 -6 -31 -26 22 -37 50 -20 50 9 0 20 -9 26
-19z m130 -1 c0 -13 -7 -20 -20 -20 -13 0 -20 7 -20 20 0 13 7 20 20 20 13 0
20 -7 20 -20z m-2550 -5 c0 -8 -4 -15 -10 -15 -5 0 -10 7 -10 15 0 8 5 15 10
15 6 0 10 -7 10 -15z m60 -5 c0 -5 -4 -10 -10 -10 -5 0 -10 5 -10 10 0 6 5 10
10 10 6 0 10 -4 10 -10z m17 -36 c-3 -3 -12 -4 -19 -1 -8 3 -5 6 6 6 11 1 17
-2 13 -5z m48 -14 c3 -5 2 -10 -4 -10 -5 0 -13 5 -16 10 -3 6 -2 10 4 10 5 0
13 -4 16 -10z m1998 -193 c9 -3 17 -12 16 -19 0 -10 -2 -10 -6 0 -2 6 -11 12
-18 12 -8 0 -19 10 -25 23 -9 19 -9 20 2 6 7 -8 21 -18 31 -22z m17 23 c0 -5
-4 -10 -9 -10 -6 0 -13 5 -16 10 -3 6 1 10 9 10 9 0 16 -4 16 -10z m446 -98
c-4 -3 -11 0 -16 8 -15 24 -11 33 6 15 9 -9 13 -19 10 -23z m-286 -54 c0 -14
-18 -9 -24 7 -3 8 -12 15 -21 15 -8 0 -15 5 -15 11 0 5 13 2 30 -8 17 -9 30
-21 30 -25z m247 -65 c-2 -16 -4 -5 -4 22 0 28 2 40 4 28 2 -13 2 -35 0 -50z
m-3050 25 c-3 -8 -6 -5 -6 6 -1 11 2 17 5 13 3 -3 4 -12 1 -19z m210 -24 c-3
-3 -12 -4 -19 -1 -8 3 -5 6 6 6 11 1 17 -2 13 -5z m63 -24 c0 -5 -4 -10 -10
-10 -5 0 -10 5 -10 10 0 6 5 10 10 10 6 0 10 -4 10 -10z m2794 -55 c22 -22 24
-27 12 -50 -15 -29 -26 -23 -26 16 0 15 -4 31 -10 34 -10 6 -14 25 -5 25 2 0
15 -11 29 -25z m-2849 -155 c-3 -5 -13 -10 -21 -10 -8 0 -14 -4 -14 -10 0 -5
-4 -10 -10 -10 -30 0 4 28 48 39 2 1 0 -3 -3 -9z m-125 -75 c-7 -8 -22 -14
-34 -14 -19 2 -19 2 2 6 13 3 26 11 29 19 3 8 8 13 11 10 3 -3 -1 -12 -8 -21z
m226 10 c14 -13 11 -15 -28 -15 -42 0 -42 1 -18 14 14 8 26 14 28 15 2 1 10
-6 18 -14z m114 6 c0 -14 -37 -23 -60 -16 -34 11 -22 25 20 25 22 0 40 -4 40
-9z m2334 -64 c10 -4 16 -10 13 -13 -3 -4 -14 -3 -24 1 -10 5 -20 8 -23 7 -3
0 -6 8 -6 19 0 16 2 18 11 7 5 -8 19 -17 29 -21z m30 7 c3 -8 2 -12 -4 -9 -6
3 -10 10 -10 16 0 14 7 11 14 -7z m-2754 -8 c-14 -13 -71 -35 -60 -23 7 7 63
37 70 37 2 0 -2 -6 -10 -14z m2053 -103 c-7 -2 -21 -2 -30 0 -10 3 -4 5 12 5
17 0 24 -2 18 -5z m-76 -9 c-3 -3 -12 -4 -19 -1 -8 3 -5 6 6 6 11 1 17 -2 13
-5z m-129 -51 c2 -8 -5 -13 -17 -13 -12 0 -21 6 -21 16 0 18 31 15 38 -3z
m1390 -28 c-3 -3 -9 2 -12 12 -6 14 -5 15 5 6 7 -7 10 -15 7 -18z m-1084 -51
c3 -8 2 -12 -4 -9 -6 3 -10 10 -10 16 0 14 7 11 14 -7z m56 12 c0 -2 -7 -7
-16 -10 -8 -3 -12 -2 -9 4 6 10 25 14 25 6z m-1520 -306 c0 -5 -4 -10 -10 -10
-5 0 -10 5 -10 10 0 6 5 10 10 10 6 0 10 -4 10 -10z m-58 -30 c-36 -22 -52
-25 -52 -10 0 5 15 14 33 19 50 14 55 13 19 -9z"/>
<path d="M2546 4979 c-16 -15 -17 -22 -8 -31 10 -10 14 -8 18 10 4 12 13 22
20 22 8 0 14 5 14 10 0 16 -23 10 -44 -11z"/>
<path d="M2600 4959 c0 -11 5 -17 10 -14 6 3 10 13 10 21 0 8 -4 14 -10 14 -5
0 -10 -9 -10 -21z"/>
<path d="M2432 4929 c2 -6 8 -10 13 -10 5 0 11 4 13 10 2 6 -4 11 -13 11 -9 0
-15 -5 -13 -11z"/>
<path d="M3110 4960 c0 -13 7 -20 20 -20 13 0 20 7 20 20 0 13 -7 20 -20 20
-13 0 -20 -7 -20 -20z"/>
<path d="M3250 4960 c0 -11 7 -20 15 -20 8 0 15 9 15 20 0 11 -7 20 -15 20 -8
0 -15 -9 -15 -20z"/>
<path d="M3210 4865 c0 -8 9 -15 20 -15 11 0 20 7 20 15 0 8 -9 15 -20 15 -11
0 -20 -7 -20 -15z"/>
<path d="M3340 4865 c0 -8 7 -15 15 -15 8 0 15 7 15 15 0 8 -7 15 -15 15 -8 0
-15 -7 -15 -15z"/>
<path d="M3320 4775 c0 -8 5 -15 10 -15 6 0 10 -9 10 -20 0 -11 7 -20 15 -20
8 0 15 9 15 20 0 11 -7 20 -15 20 -8 0 -15 7 -15 15 0 8 -4 15 -10 15 -5 0
-10 -7 -10 -15z"/>
<path d="M3430 4775 c0 -8 9 -15 20 -15 11 0 20 7 20 15 0 8 -9 15 -20 15 -11
0 -20 -7 -20 -15z"/>
<path d="M3510 4775 c0 -8 5 -15 10 -15 6 0 10 -9 10 -20 0 -13 7 -20 20 -20
13 0 20 7 20 20 0 13 -7 20 -20 20 -11 0 -20 7 -20 15 0 8 -4 15 -10 15 -5 0
-10 -7 -10 -15z"/>
<path d="M3640 4775 c0 -8 7 -15 15 -15 8 0 15 7 15 15 0 8 -7 15 -15 15 -8 0
-15 -7 -15 -15z"/>
<path d="M2920 5091 c0 -6 -9 -11 -20 -11 -13 0 -20 -7 -20 -20 0 -13 7 -20
20 -20 13 0 20 7 20 20 0 11 5 20 10 20 6 0 10 -9 10 -20 0 -13 7 -20 20 -20
11 0 20 7 20 15 0 8 5 15 10 15 21 0 9 15 -12 16 -13 0 -31 4 -40 8 -11 5 -18
4 -18 -3z"/>
<path d="M3930 4670 c0 -5 7 -10 15 -10 8 0 15 -9 15 -20 0 -11 7 -20 15 -20
8 0 15 9 15 20 0 11 7 20 15 20 8 0 15 5 15 10 0 6 -7 10 -15 10 -8 0 -15 -4
-15 -10 0 -5 -7 -10 -15 -10 -8 0 -15 5 -15 10 0 6 -7 10 -15 10 -8 0 -15 -4
-15 -10z"/>
<path d="M4025 4650 c-8 -14 3 -30 21 -30 8 0 14 -7 14 -15 0 -8 4 -15 9 -15
5 0 14 7 21 15 10 12 9 15 -8 15 -11 0 -22 8 -25 20 -5 21 -22 26 -32 10z"/>
<path d="M3930 4610 c0 -6 7 -13 15 -16 8 -4 15 -12 15 -20 0 -8 -7 -14 -15
-14 -8 0 -15 -7 -15 -15 0 -8 5 -15 10 -15 6 0 13 7 16 15 4 8 12 15 19 15 7
0 15 -7 19 -15 3 -8 10 -15 16 -15 5 0 10 7 10 15 0 8 -7 15 -15 15 -8 0 -15
6 -15 14 0 8 7 16 15 20 8 3 15 10 15 16 0 5 -7 10 -15 10 -8 0 -15 -4 -15
-10 0 -5 -7 -10 -15 -10 -8 0 -15 5 -15 10 0 6 -7 10 -15 10 -8 0 -15 -5 -15
-10z"/>
<path d="M4025 4579 c-4 -6 2 -13 14 -16 12 -3 21 -12 21 -19 0 -8 5 -14 10
-14 15 0 12 17 -7 40 -20 23 -29 25 -38 9z"/>
<path d="M4100 4576 c0 -9 5 -16 10 -16 6 0 10 4 10 9 0 6 -4 13 -10 16 -5 3
-10 -1 -10 -9z"/>
<path d="M3883 4565 c-16 -17 -17 -35 -3 -35 6 0 10 7 10 15 0 8 7 15 15 15 8
0 15 5 15 10 0 15 -23 12 -37 -5z"/>
<path d="M4135 4540 c3 -5 11 -10 16 -10 6 0 7 5 4 10 -3 6 -11 10 -16 10 -6
0 -7 -4 -4 -10z"/>
<path d="M3890 4504 c0 -9 5 -14 12 -12 18 6 21 28 4 28 -9 0 -16 -7 -16 -16z"/>
<path d="M3960 4505 c0 -8 -7 -15 -15 -15 -8 0 -15 -4 -15 -10 0 -15 17 -12
40 7 24 21 26 33 5 33 -8 0 -15 -7 -15 -15z"/>
<path d="M4032 4508 c6 -18 28 -21 28 -4 0 9 -7 16 -16 16 -9 0 -14 -5 -12
-12z"/>
<path d="M4100 4505 c0 -8 5 -15 10 -15 6 0 10 7 10 15 0 8 -4 15 -10 15 -5 0
-10 -7 -10 -15z"/>
<path d="M4160 4505 c0 -9 5 -15 11 -13 6 2 11 8 11 13 0 5 -5 11 -11 13 -6 2
-11 -4 -11 -13z"/>
<path d="M4216 4494 c-11 -7 -17 -17 -13 -20 3 -4 14 1 23 10 21 22 15 28 -10
10z"/>
<path d="M3870 4474 c0 -8 5 -12 10 -9 6 4 8 11 5 16 -9 14 -15 11 -15 -7z"/>
<path d="M3992 4479 c2 -7 10 -15 17 -17 8 -3 12 1 9 9 -2 7 -10 15 -17 17 -8
3 -12 -1 -9 -9z"/>
<path d="M4260 4470 c0 -5 5 -10 10 -10 6 0 10 5 10 10 0 6 -4 10 -10 10 -5 0
-10 -4 -10 -10z"/>
<path d="M3890 4440 c0 -5 7 -10 15 -10 8 0 15 5 15 10 0 6 -7 10 -15 10 -8 0
-15 -4 -15 -10z"/>
<path d="M3948 4428 c-10 -12 -18 -26 -18 -30 0 -15 21 -8 27 10 4 9 14 22 22
29 14 11 14 12 1 13 -8 0 -23 -10 -32 -22z"/>
<path d="M4030 4440 c0 -5 7 -10 16 -10 8 0 12 5 9 10 -3 6 -10 10 -16 10 -5
0 -9 -4 -9 -10z"/>
<path d="M4100 4440 c0 -5 5 -10 10 -10 6 0 10 5 10 10 0 6 -4 10 -10 10 -5 0
-10 -4 -10 -10z"/>
<path d="M4160 4440 c0 -5 7 -10 15 -10 8 0 15 5 15 10 0 6 -7 10 -15 10 -8 0
-15 -4 -15 -10z"/>
<path d="M4220 4440 c0 -5 7 -10 15 -10 8 0 15 5 15 10 0 6 -7 10 -15 10 -8 0
-15 -4 -15 -10z"/>
<path d="M4300 4440 c0 -5 5 -10 11 -10 5 0 7 5 4 10 -3 6 -8 10 -11 10 -2 0
-4 -4 -4 -10z"/>
<path d="M3860 4413 c0 -13 47 -53 54 -46 11 11 6 23 -9 23 -8 0 -15 7 -15 15
0 8 -7 15 -15 15 -8 0 -15 -3 -15 -7z"/>
<path d="M3996 4412 c-3 -6 -1 -14 5 -17 15 -10 25 3 12 16 -7 7 -13 7 -17 1z"/>
<path d="M4060 4411 c0 -6 5 -13 10 -16 6 -3 10 1 10 9 0 9 -4 16 -10 16 -5 0
-10 -4 -10 -9z"/>
<path d="M4200 4404 c0 -8 5 -12 10 -9 6 3 10 10 10 16 0 5 -4 9 -10 9 -5 0
-10 -7 -10 -16z"/>
<path d="M4266 4413 c-11 -11 -6 -23 9 -23 8 0 15 4 15 9 0 13 -16 22 -24 14z"/>
<path d="M4330 4406 c0 -9 5 -16 10 -16 6 0 10 4 10 9 0 6 -4 13 -10 16 -5 3
-10 -1 -10 -9z"/>
<path d="M4151 4386 c13 -14 28 -22 33 -19 5 3 -2 14 -15 24 -34 27 -45 23
-18 -5z"/>
<path d="M3966 4383 c-11 -11 -6 -23 9 -23 8 0 15 4 15 9 0 13 -16 22 -24 14z"/>
<path d="M4032 4379 c2 -6 8 -10 13 -10 5 0 11 4 13 10 2 6 -4 11 -13 11 -9 0
-15 -5 -13 -11z"/>
<path d="M4100 4376 c0 -9 5 -16 10 -16 6 0 10 4 10 9 0 6 -4 13 -10 16 -5 3
-10 -1 -10 -9z"/>
<path d="M4237 4383 c-4 -3 -7 -11 -7 -17 0 -6 5 -5 12 2 6 6 9 14 7 17 -3 3
-9 2 -12 -2z"/>
<path d="M4300 4381 c0 -5 5 -13 10 -16 6 -3 10 -2 10 4 0 5 -4 13 -10 16 -5
3 -10 2 -10 -4z"/>
<path d="M3938 4343 c7 -3 16 -2 19 1 4 3 -2 6 -13 5 -11 0 -14 -3 -6 -6z"/>
<path d="M3998 4343 c7 -3 16 -2 19 1 4 3 -2 6 -13 5 -11 0 -14 -3 -6 -6z"/>
<path d="M4268 4343 c7 -3 16 -2 19 1 4 3 -2 6 -13 5 -11 0 -14 -3 -6 -6z"/>
<path d="M3965 4330 c-4 -6 -3 -16 3 -22 6 -6 12 -6 17 2 4 6 3 16 -3 22 -6 6
-12 6 -17 -2z"/>
<path d="M3896 4323 c-11 -11 -6 -23 9 -23 8 0 15 4 15 9 0 13 -16 22 -24 14z"/>
<path d="M4100 4320 c0 -5 5 -10 10 -10 6 0 10 5 10 10 0 6 -4 10 -10 10 -5 0
-10 -4 -10 -10z"/>
<path d="M4165 4320 c-3 -5 -1 -10 4 -10 6 0 11 5 11 10 0 6 -2 10 -4 10 -3 0
-8 -4 -11 -10z"/>
<path d="M4307 4323 c-4 -3 -7 -11 -7 -17 0 -6 5 -5 12 2 6 6 9 14 7 17 -3 3
-9 2 -12 -2z"/>
<path d="M3932 4289 c2 -6 8 -10 13 -10 5 0 11 4 13 10 2 6 -4 11 -13 11 -9 0
-15 -5 -13 -11z"/>
<path d="M3992 4289 c2 -6 8 -10 13 -10 5 0 11 4 13 10 2 6 -4 11 -13 11 -9 0
-15 -5 -13 -11z"/>
<path d="M4060 4285 c0 -8 5 -15 10 -15 6 0 10 7 10 15 0 8 -4 15 -10 15 -5 0
-10 -7 -10 -15z"/>
<path d="M4135 4290 c-3 -5 -1 -10 4 -10 6 0 11 5 11 10 0 6 -2 10 -4 10 -3 0
-8 -4 -11 -10z"/>
<path d="M4262 4289 c2 -6 8 -10 13 -10 5 0 11 4 13 10 2 6 -4 11 -13 11 -9 0
-15 -5 -13 -11z"/>
<path d="M4330 4285 c0 -8 5 -15 10 -15 6 0 10 7 10 15 0 8 -4 15 -10 15 -5 0
-10 -7 -10 -15z"/>
<path d="M4200 4280 c0 -5 5 -10 10 -10 6 0 10 5 10 10 0 6 -4 10 -10 10 -5 0
-10 -4 -10 -10z"/>
<path d="M3965 4250 c3 -5 8 -10 11 -10 2 0 4 5 4 10 0 6 -5 10 -11 10 -5 0
-7 -4 -4 -10z"/>
<path d="M4030 4250 c0 -5 5 -10 11 -10 7 0 18 -8 25 -17 9 -12 13 -14 14 -5
0 16 -24 42 -39 42 -6 0 -11 -4 -11 -10z"/>
<path d="M4100 4249 c0 -5 5 -7 10 -4 6 3 10 8 10 11 0 2 -4 4 -10 4 -5 0 -10
-5 -10 -11z"/>
<path d="M4168 4253 c7 -3 16 -2 19 1 4 3 -2 6 -13 5 -11 0 -14 -3 -6 -6z"/>
<path d="M4300 4250 c0 -5 7 -10 15 -10 8 0 15 -7 15 -15 0 -8 4 -15 10 -15 6
0 5 10 -2 25 -11 24 -38 35 -38 15z"/>
<path d="M3930 4231 c0 -6 4 -13 10 -16 6 -3 7 1 4 9 -7 18 -14 21 -14 7z"/>
<path d="M4011 4224 c0 -11 3 -14 6 -6 3 7 2 16 -1 19 -3 4 -6 -2 -5 -13z"/>
<path d="M4260 4220 c0 -5 7 -10 16 -10 8 0 12 5 9 10 -3 6 -10 10 -16 10 -5
0 -9 -4 -9 -10z"/>
<path d="M4030 4190 c0 -5 4 -10 9 -10 6 0 13 5 16 10 3 6 -1 10 -9 10 -9 0
-16 -4 -16 -10z"/>
<path d="M4100 4186 c0 -9 5 -16 10 -16 6 0 10 4 10 9 0 6 -4 13 -10 16 -5 3
-10 -1 -10 -9z"/>
<path d="M4160 4184 c0 -8 5 -12 10 -9 6 3 10 10 10 16 0 5 -4 9 -10 9 -5 0
-10 -7 -10 -16z"/>
<path d="M4227 4194 c-8 -8 1 -24 14 -24 5 0 9 7 9 15 0 15 -12 20 -23 9z"/>
<path d="M4292 4188 c5 -15 28 -18 29 -3 0 6 -7 12 -17 13 -10 3 -15 -1 -12
-10z"/>
<path d="M4200 4144 c0 -8 5 -12 10 -9 6 3 10 10 10 16 0 5 -4 9 -10 9 -5 0
-10 -7 -10 -16z"/>
<path d="M4262 4149 c2 -6 8 -10 13 -10 5 0 11 4 13 10 2 6 -4 11 -13 11 -9 0
-15 -5 -13 -11z"/>
<path d="M4336 4145 c4 -8 8 -15 10 -15 2 0 4 7 4 15 0 8 -4 15 -10 15 -5 0
-7 -7 -4 -15z"/>
<path d="M3840 4124 c0 -5 7 -19 15 -30 8 -10 15 -35 15 -54 1 -19 6 -44 11
-55 7 -14 8 -5 5 33 -3 30 -14 68 -25 85 -12 18 -21 27 -21 21z"/>
<path d="M4100 4120 c0 -5 5 -10 10 -10 6 0 10 5 10 10 0 6 -4 10 -10 10 -5 0
-10 -4 -10 -10z"/>
<path d="M4160 4120 c0 -5 7 -10 15 -10 8 0 15 5 15 10 0 6 -7 10 -15 10 -8 0
-15 -4 -15 -10z"/>
<path d="M4201 4084 c0 -11 3 -14 6 -6 3 7 2 16 -1 19 -3 4 -6 -2 -5 -13z"/>
<path d="M4270 4090 c0 -5 5 -10 11 -10 5 0 7 5 4 10 -3 6 -8 10 -11 10 -2 0
-4 -4 -4 -10z"/>
<path d="M3970 4023 c0 -32 18 -73 32 -73 9 0 9 3 0 12 -7 7 -12 21 -12 33 0
11 -5 27 -10 35 -8 12 -10 11 -10 -7z"/>
<path d="M610 3955 c-10 -13 -9 -15 9 -15 12 0 21 6 21 15 0 8 -4 15 -9 15 -5
0 -14 -7 -21 -15z"/>
<path d="M416 3831 c-4 -5 -2 -12 3 -15 5 -4 12 -2 15 3 4 5 2 12 -3 15 -5 4
-12 2 -15 -3z"/>
<path d="M4000 3833 c1 -18 18 -35 24 -24 4 6 4 16 1 21 -7 12 -25 13 -25 3z"/>
<path d="M3760 3811 c0 -12 6 -21 15 -21 8 0 15 4 15 9 0 5 -7 14 -15 21 -13
10 -15 9 -15 -9z"/>
<path d="M375 3800 c-3 -5 3 -10 15 -10 12 0 18 5 15 10 -3 6 -10 10 -15 10
-5 0 -12 -4 -15 -10z"/>
<path d="M356 3771 c-4 -7 -5 -15 -2 -18 9 -9 19 4 14 18 -4 11 -6 11 -12 0z"/>
<path d="M415 3769 c-10 -15 3 -25 16 -12 7 7 7 13 1 17 -6 3 -14 1 -17 -5z"/>
<path d="M4023 3747 c4 -10 7 -30 7 -43 0 -13 5 -24 10 -24 17 0 11 57 -7 71
-15 12 -16 12 -10 -4z"/>
<path d="M382 3741 c-10 -6 -10 -10 1 -20 12 -9 16 -8 20 3 7 19 -4 27 -21 17z"/>
<path d="M454 3739 c-11 -18 11 -32 25 -16 9 12 8 16 -3 20 -9 4 -18 1 -22 -4z"/>
<path d="M350 3700 c0 -5 5 -10 10 -10 6 0 10 5 10 10 0 6 -4 10 -10 10 -5 0
-10 -4 -10 -10z"/>
<path d="M410 3700 c0 -5 7 -10 15 -10 8 0 15 5 15 10 0 6 -7 10 -15 10 -8 0
-15 -4 -15 -10z"/>
<path d="M302 3650 c-15 -24 -15 -30 -2 -30 6 0 10 7 10 15 0 8 5 15 10 15 6
0 10 5 10 10 0 16 -14 11 -28 -10z"/>
<path d="M363 3655 c-16 -17 -17 -35 -3 -35 6 0 10 7 10 15 0 8 9 15 20 15 11
0 20 -7 20 -15 0 -16 15 -20 24 -7 6 10 -30 42 -47 42 -6 -1 -18 -7 -24 -15z"/>
<path d="M450 3665 c0 -8 34 -45 42 -45 5 0 8 7 8 15 0 8 -7 15 -15 15 -8 0
-15 5 -15 10 0 6 -4 10 -10 10 -5 0 -10 -2 -10 -5z"/>
<path d="M805 3639 c-4 -6 -5 -13 -2 -16 7 -7 27 6 27 18 0 12 -17 12 -25 -2z"/>
<path d="M310 3595 c0 -8 5 -15 10 -15 6 0 10 7 10 15 0 8 -4 15 -10 15 -5 0
-10 -7 -10 -15z"/>
<path d="M370 3595 c0 -8 -4 -15 -10 -15 -5 0 -10 -8 -10 -17 1 -17 1 -17 14
0 15 19 46 23 46 6 0 -6 -10 -19 -22 -30 -28 -23 -7 -25 27 -3 28 18 33 44 10
44 -8 0 -15 7 -15 15 0 8 -9 15 -20 15 -11 0 -20 -7 -20 -15z"/>
<path d="M717 3603 c-12 -11 -8 -23 8 -23 8 0 15 7 15 15 0 16 -12 20 -23 8z"/>
<path d="M900 3595 c0 -8 5 -15 10 -15 6 0 10 7 10 15 0 8 -4 15 -10 15 -5 0
-10 -7 -10 -15z"/>
<path d="M960 3595 c0 -8 -7 -15 -15 -15 -8 0 -15 -6 -15 -13 0 -14 35 -47 50
-47 16 0 12 20 -5 26 -21 8 -19 23 8 45 l22 18 -22 1 c-14 0 -23 -6 -23 -15z"/>
<path d="M1040 3595 c0 -8 5 -15 10 -15 6 0 10 7 10 15 0 8 -4 15 -10 15 -5 0
-10 -7 -10 -15z"/>
<path d="M1100 3594 c0 -14 3 -14 15 -4 8 7 15 14 15 16 0 2 -7 4 -15 4 -8 0
-15 -7 -15 -16z"/>
<path d="M1188 3603 c6 -2 18 -2 25 0 6 3 1 5 -13 5 -14 0 -19 -2 -12 -5z"/>
<path d="M4170 3576 c0 -20 5 -36 10 -36 6 0 10 13 10 29 0 17 -4 33 -10 36
-6 4 -10 -8 -10 -29z"/>
<path d="M575 3575 c-16 -7 -50 -32 -74 -54 -24 -23 -49 -41 -55 -41 -5 0 -4
-6 3 -12 11 -10 14 -10 18 0 3 6 11 12 19 12 8 0 14 9 14 20 0 13 7 20 20 20
11 0 20 3 20 8 0 14 69 54 81 46 8 -4 9 -3 5 4 -9 14 -13 14 -51 -3z"/>
<path d="M280 3573 c1 -10 36 -53 44 -53 11 0 6 20 -11 40 -18 20 -33 26 -33
13z"/>
<path d="M680 3573 c0 -12 38 -48 44 -42 3 2 -6 15 -20 28 -13 13 -24 19 -24
14z"/>
<path d="M800 3570 c-13 -8 -12 -10 3 -10 9 0 17 5 17 10 0 12 -1 12 -20 0z"/>
<path d="M870 3567 c0 -12 34 -47 45 -47 13 0 3 25 -17 41 -25 22 -28 23 -28
6z"/>
<path d="M580 3535 c0 -8 5 -15 10 -15 6 0 10 7 10 15 0 8 -4 15 -10 15 -5 0
-10 -7 -10 -15z"/>
<path d="M646 3543 c-11 -11 -6 -23 9 -23 8 0 15 4 15 9 0 13 -16 22 -24 14z"/>
<path d="M836 3543 c-11 -11 -6 -23 9 -23 8 0 15 4 15 9 0 13 -16 22 -24 14z"/>
<path d="M1040 3534 c0 -8 5 -12 10 -9 6 3 10 10 10 16 0 5 -4 9 -10 9 -5 0
-10 -7 -10 -16z"/>
<path d="M4120 3515 c0 -8 5 -15 10 -15 6 0 10 7 10 15 0 8 -4 15 -10 15 -5 0
-10 -7 -10 -15z"/>
<path d="M3508 3513 c7 -3 16 -2 19 1 4 3 -2 6 -13 5 -11 0 -14 -3 -6 -6z"/>
<path d="M4162 3490 c0 -19 2 -27 5 -17 2 9 2 25 0 35 -3 9 -5 1 -5 -18z"/>
<path d="M350 3495 c0 -8 5 -15 10 -15 6 0 10 7 10 15 0 8 -4 15 -10 15 -5 0
-10 -7 -10 -15z"/>
<path d="M410 3495 c0 -8 -7 -15 -15 -15 -8 0 -15 -4 -15 -10 0 -16 15 -12 33
8 19 21 22 32 7 32 -5 0 -10 -7 -10 -15z"/>
<path d="M540 3495 c0 -8 -7 -15 -15 -15 -8 0 -15 -4 -15 -10 0 -15 17 -12 40
7 24 21 26 33 5 33 -8 0 -15 -7 -15 -15z"/>
<path d="M617 3504 c-8 -8 1 -24 14 -24 5 0 9 7 9 15 0 15 -12 20 -23 9z"/>
<path d="M681 3494 c0 -11 3 -14 6 -6 3 7 2 16 -1 19 -3 4 -6 -2 -5 -13z"/>
<path d="M746 3503 c-11 -11 -6 -23 9 -23 8 0 15 4 15 9 0 13 -16 22 -24 14z"/>
<path d="M811 3494 c0 -11 3 -14 6 -6 3 7 2 16 -1 19 -3 4 -6 -2 -5 -13z"/>
<path d="M870 3494 c0 -8 5 -12 10 -9 6 3 10 10 10 16 0 5 -4 9 -10 9 -5 0
-10 -7 -10 -16z"/>
<path d="M937 3504 c-8 -8 1 -24 14 -24 5 0 9 7 9 15 0 15 -12 20 -23 9z"/>
<path d="M1000 3495 c0 -8 5 -15 10 -15 6 0 10 7 10 15 0 8 -4 15 -10 15 -5 0
-10 -7 -10 -15z"/>
<path d="M3560 3504 c0 -11 74 -80 94 -87 16 -6 17 -5 6 8 -7 8 -16 15 -21 15
-4 0 -19 11 -33 25 l-25 25 24 0 c14 0 25 5 25 10 0 6 -16 10 -35 10 -19 0
-35 -3 -35 -6z"/>
<path d="M280 3490 c0 -5 7 -10 16 -10 8 0 12 5 9 10 -3 6 -10 10 -16 10 -5 0
-9 -4 -9 -10z"/>
<path d="M3685 3480 c17 -4 46 -8 65 -8 l35 0 -30 8 c-16 4 -46 8 -65 8 l-35
0 30 -8z"/>
<path d="M315 3470 c-3 -5 -1 -10 4 -10 6 0 11 5 11 10 0 6 -2 10 -4 10 -3 0
-8 -4 -11 -10z"/>
<path d="M580 3470 c0 -5 5 -10 10 -10 6 0 10 5 10 10 0 6 -4 10 -10 10 -5 0
-10 -4 -10 -10z"/>
<path d="M720 3470 c0 -5 5 -10 11 -10 5 0 7 5 4 10 -3 6 -8 10 -11 10 -2 0
-4 -4 -4 -10z"/>
<path d="M835 3470 c-3 -5 1 -10 9 -10 9 0 16 5 16 10 0 6 -4 10 -9 10 -6 0
-13 -4 -16 -10z"/>
<path d="M905 3470 c-3 -5 -1 -10 4 -10 6 0 11 5 11 10 0 6 -2 10 -4 10 -3 0
-8 -4 -11 -10z"/>
<path d="M965 3470 c-3 -5 1 -10 9 -10 9 0 16 5 16 10 0 6 -4 10 -9 10 -6 0
-13 -4 -16 -10z"/>
<path d="M225 3430 c-3 -5 -1 -10 4 -10 6 0 11 5 11 10 0 6 -2 10 -4 10 -3 0
-8 -4 -11 -10z"/>
<path d="M280 3430 c0 -5 7 -10 16 -10 8 0 12 5 9 10 -3 6 -10 10 -16 10 -5 0
-9 -4 -9 -10z"/>
<path d="M350 3430 c0 -5 5 -10 11 -10 5 0 7 5 4 10 -3 6 -8 10 -11 10 -2 0
-4 -4 -4 -10z"/>
<path d="M410 3430 c0 -5 7 -10 15 -10 8 0 15 5 15 10 0 6 -7 10 -15 10 -8 0
-15 -4 -15 -10z"/>
<path d="M470 3430 c0 -5 7 -10 15 -10 8 0 15 5 15 10 0 6 -7 10 -15 10 -8 0
-15 -4 -15 -10z"/>
<path d="M610 3430 c0 -5 7 -10 16 -10 8 0 12 5 9 10 -3 6 -10 10 -16 10 -5 0
-9 -4 -9 -10z"/>
<path d="M740 3430 c0 -5 7 -10 15 -10 8 0 15 5 15 10 0 6 -7 10 -15 10 -8 0
-15 -4 -15 -10z"/>
<path d="M1000 3430 c0 -5 5 -10 10 -10 6 0 10 5 10 10 0 6 -4 10 -10 10 -5 0
-10 -4 -10 -10z"/>
<path d="M3430 3425 c0 -16 16 -20 24 -6 3 5 -1 11 -9 15 -9 3 -15 0 -15 -9z"/>
<path d="M3456 3405 c-14 -10 -15 -17 -7 -27 6 -7 20 -25 32 -40 24 -32 34
-34 78 -12 18 9 35 13 38 10 9 -9 -28 -35 -60 -42 -15 -4 -33 -14 -40 -23 -7
-9 -18 -16 -24 -17 -40 -3 -42 -5 -36 -21 4 -10 10 -20 13 -23 4 -3 10 -18 14
-35 7 -29 7 -29 -8 -10 -8 11 -16 24 -16 29 0 17 -55 126 -62 126 -5 0 -8 -9
-8 -21 0 -16 -4 -19 -16 -15 -19 7 -54 -20 -54 -41 0 -7 -5 -22 -12 -33 -10
-15 -9 -26 5 -55 9 -20 21 -34 25 -32 4 3 8 -15 9 -40 1 -25 7 -51 14 -59 6
-8 9 -21 5 -29 -3 -9 1 -18 9 -21 8 -4 15 -12 15 -20 0 -23 16 -16 70 33 38
34 51 41 48 27 -2 -12 3 -19 12 -19 8 0 14 5 13 10 -1 6 8 12 20 12 16 2 18 0
8 -6 -8 -5 -12 -17 -9 -27 4 -15 -1 -19 -26 -20 -16 -1 -32 -6 -34 -13 -2 -6
-13 -11 -25 -11 -18 0 -133 -51 -249 -111 -10 -5 -24 -9 -32 -9 -8 0 -16 -3
-18 -7 -1 -5 -38 -26 -81 -48 -43 -22 -85 -47 -93 -56 -13 -14 -11 -20 17 -47
17 -17 28 -35 25 -41 -4 -5 -2 -12 4 -16 19 -12 10 -33 -17 -44 -22 -9 -23
-10 -5 -7 38 7 8 -20 -44 -40 -30 -11 -44 -23 -44 -35 0 -12 -7 -19 -18 -19
-10 0 -23 -5 -29 -11 -8 -8 -13 -8 -17 0 -4 6 0 11 9 11 10 0 13 5 9 12 -5 8
-2 9 9 5 21 -8 23 16 2 33 -17 14 -35 5 -35 -18 0 -30 -17 -47 -32 -34 -19 15
-53 5 -113 -33 -28 -17 -64 -36 -80 -42 -17 -5 -34 -19 -40 -31 -6 -15 -19
-22 -37 -22 -14 0 -33 -3 -42 -6 -9 -3 -24 5 -37 20 -26 29 -39 33 -39 11 0
-28 -18 -15 -25 17 -4 18 -11 39 -15 48 -28 55 -49 108 -51 125 -3 24 13 61
39 94 l19 24 21 -21 c18 -18 22 -19 33 -6 10 12 10 20 1 35 -15 23 -16 115 -2
124 18 11 0 25 -35 25 -20 0 -35 6 -39 15 -3 8 -1 15 4 15 6 0 10 5 10 10 0 6
-9 10 -20 10 -11 0 -20 3 -21 8 0 4 -2 16 -4 27 -16 86 -16 82 -6 53 18 -55
66 -92 59 -47 -2 13 3 24 12 26 13 4 13 3 0 -6 -8 -6 -10 -11 -4 -11 12 0 40
28 33 33 -59 40 -117 67 -131 64 -14 -4 -23 5 -38 39 -11 24 -26 44 -33 44 -7
0 -28 16 -47 35 -36 37 -57 44 -66 21 -3 -7 -14 -11 -28 -9 -20 4 -25 -1 -36
-41 -7 -25 -16 -46 -20 -46 -12 0 -28 -74 -23 -107 5 -30 3 -33 -21 -33 -17 0
-26 -5 -26 -15 0 -9 -7 -18 -15 -21 -8 -4 -15 -11 -15 -18 0 -6 -9 -22 -20
-36 -22 -28 -26 -60 -9 -77 7 -7 13 -28 16 -49 3 -30 17 -51 76 -111 53 -54
79 -73 98 -73 30 0 52 -35 64 -102 4 -21 11 -38 15 -38 4 0 10 -14 12 -31 4
-22 -1 -34 -16 -45 -33 -23 -63 -17 -104 21 -22 19 -42 31 -46 27 -11 -10 -40
-9 -49 3 -5 6 -7 0 -4 -12 4 -17 1 -23 -13 -23 -28 0 -84 27 -132 63 -77 59
-102 56 -94 -11 2 -15 1 -19 -1 -9 -2 9 -9 17 -14 17 -5 0 -9 12 -9 27 l0 27
-29 -28 c-16 -15 -31 -38 -34 -51 -3 -20 1 -25 22 -28 14 -2 0 -5 -31 -6 -31
0 -59 -5 -62 -10 -3 -5 -23 -12 -43 -16 -51 -9 -113 -29 -113 -35 0 -3 -18
-29 -40 -59 -22 -29 -40 -57 -40 -63 0 -5 -9 -22 -19 -37 -11 -15 -23 -40 -27
-57 -7 -29 -14 -46 -47 -112 -22 -44 -21 -62 3 -62 12 0 20 7 20 18 0 22 33
116 42 120 4 2 16 22 26 45 10 23 26 48 35 56 10 7 17 20 17 29 0 8 8 32 17
53 15 31 26 40 60 48 60 16 63 15 63 -23 0 -33 -1 -34 -29 -26 -37 10 -41 2
-41 -95 0 -64 3 -77 25 -103 14 -17 25 -35 25 -40 0 -6 17 -14 38 -17 59 -11
102 -28 102 -42 0 -7 9 -20 19 -30 15 -14 21 -38 25 -109 7 -97 2 -128 -20
-120 -11 4 -13 -3 -8 -37 3 -23 8 -49 11 -57 4 -8 7 -18 7 -22 1 -10 12 -11
29 -5 9 4 9 6 0 6 -23 2 -15 41 7 41 11 0 23 7 26 15 5 11 21 15 60 15 60 0
70 -12 24 -29 -23 -7 -30 -16 -30 -35 0 -21 -5 -26 -24 -26 -24 0 -43 -34 -25
-46 5 -3 9 -11 9 -17 0 -7 -4 -6 -10 3 -5 8 -10 11 -10 5 0 -5 10 -26 22 -45
12 -19 24 -53 28 -75 5 -36 8 -40 31 -38 43 3 54 -33 51 -161 -1 -61 -7 -112
-12 -114 -17 -6 -10 -66 10 -92 20 -25 27 -56 11 -46 -4 3 -6 -7 -3 -22 l5
-27 -30 27 c-30 29 -49 35 -55 19 -2 -6 -19 -5 -44 1 l-42 12 -57 -63 c-32
-34 -60 -59 -63 -56 -3 3 2 13 11 23 10 10 17 22 17 27 0 5 10 19 22 32 12 13
19 25 17 27 -3 3 -29 -19 -59 -49 -30 -30 -61 -54 -68 -55 -7 0 -15 -7 -18
-15 -4 -8 -14 -15 -24 -15 -9 0 -39 -23 -66 -52 l-48 -51 59 -55 c32 -30 72
-60 89 -67 31 -13 70 -49 77 -72 5 -15 89 -113 168 -194 59 -62 69 -69 140
-88 545 -151 1096 -125 1611 76 476 186 889 516 1175 937 63 93 71 116 40 116
-8 0 -30 9 -50 21 -37 22 -65 20 -65 -6 0 -8 -4 -15 -9 -15 -5 0 -18 -3 -28
-6 -15 -6 -16 -4 -5 7 6 7 12 19 12 27 0 9 -13 3 -35 -17 -20 -17 -42 -31 -50
-31 -8 0 -15 -4 -15 -9 0 -5 -14 -16 -30 -25 -34 -16 -30 -2 7 27 21 17 22 20
8 40 -9 12 -19 22 -23 23 -18 2 -48 19 -58 33 -9 12 -8 18 5 27 12 10 13 16 5
24 -8 8 -14 9 -18 1 -4 -6 -11 -11 -15 -11 -14 0 -81 70 -81 85 0 8 -4 17 -10
20 -5 3 -10 20 -10 37 0 23 4 29 16 24 8 -3 12 -2 9 4 -3 6 -13 10 -21 10 -8
0 -14 7 -14 15 0 20 -36 19 -44 -1 -4 -9 -1 -24 6 -33 7 -9 1 -6 -14 7 -16 15
-30 42 -37 75 -7 29 -14 62 -18 75 -3 13 -1 22 6 22 7 0 9 -5 5 -12 -4 -7 -3
-8 4 -4 7 4 12 22 12 39 l0 32 -20 -25 c-17 -23 -19 -23 -26 -7 -3 10 -7 37
-8 60 -1 39 -19 67 -33 53 -4 -3 -1 -6 5 -6 7 0 12 -11 12 -25 0 -15 -6 -25
-14 -25 -9 0 -12 7 -9 20 3 11 0 20 -6 20 -6 0 -11 -3 -11 -7 0 -5 -12 -16
-25 -26 l-24 -17 3 49 c1 27 9 58 17 68 13 16 12 17 -2 5 -20 -15 -34 -2 -44
41 -8 31 -17 34 -35 12 -7 -8 -21 -15 -31 -15 -11 0 -19 -4 -19 -10 0 -5 -7
-10 -15 -10 -8 0 -15 4 -15 8 0 15 35 42 54 42 9 0 27 10 40 23 33 31 131 81
145 73 6 -4 11 -14 11 -22 0 -8 10 -36 23 -62 l22 -47 3 118 c2 88 6 117 15
114 7 -2 18 -26 24 -53 11 -43 12 -28 7 113 -4 133 -3 162 8 158 10 -4 14 8
16 46 2 45 0 50 -13 39 -8 -7 -15 -19 -15 -26 0 -8 -5 -14 -10 -14 -7 0 -9
-19 -6 -47 3 -27 8 -84 10 -128 5 -66 4 -75 -5 -50 -7 17 -16 35 -20 41 -12
15 -13 282 -1 297 30 38 28 171 -3 197 -11 9 -15 -1 -21 -47 -3 -32 -12 -61
-18 -65 -8 -5 -7 -13 2 -29 10 -16 14 -89 17 -298 2 -187 -1 -265 -7 -241 -5
19 -14 39 -19 45 -5 5 -9 19 -9 32 0 12 -10 31 -22 42 -19 18 -22 19 -33 5
-10 -14 -12 -14 -24 0 -7 9 -10 24 -6 33 3 10 6 20 6 23 -2 11 -27 6 -43 -8
-12 -10 -18 -11 -18 -4 0 7 -9 3 -20 -8 -11 -11 -20 -23 -20 -27 0 -5 -15 -27
-33 -49 -29 -36 -35 -40 -50 -29 -17 12 -16 15 12 34 16 12 39 41 51 65 11 25
27 49 34 56 8 6 20 25 27 43 7 18 15 34 18 37 11 10 71 135 71 148 0 7 9 34
21 59 11 25 23 62 26 82 3 20 10 41 15 47 5 7 2 16 -7 24 -21 17 -19 43 6 74
19 24 21 36 16 94 -4 36 -10 68 -15 71 -5 3 -12 33 -16 66 -4 32 -13 72 -21
87 -9 20 -10 28 -2 28 25 0 -31 28 -80 40 -56 13 -66 27 -32 48 17 11 22 10
37 -9 16 -19 19 -20 32 -5 12 15 11 18 -8 23 -12 3 -22 9 -22 14 0 5 -9 9 -20
9 -11 0 -20 -4 -20 -9 0 -5 -13 -12 -30 -16 -16 -4 -32 -11 -35 -16 -9 -14
-47 -10 -69 6 -18 13 -72 11 -87 -4 -4 -3 -10 -23 -13 -44 -7 -37 -6 -38 16
-32 13 4 25 12 26 16 5 11 22 12 22 1 0 -5 -18 -16 -40 -26 -22 -10 -44 -25
-49 -34 -5 -9 -15 -75 -22 -147 -7 -71 -15 -132 -19 -135 -8 -7 -40 -253 -40
-313 0 -41 -3 -49 -25 -59 -19 -9 -28 -9 -37 0 -7 7 -42 12 -85 12 -40 0 -73
4 -73 9 0 10 49 21 96 21 58 0 83 37 95 138 6 48 14 96 19 107 5 11 11 36 14
56 5 29 2 39 -16 55 -21 19 -21 19 -14 0 4 -11 1 -53 -5 -93 -9 -57 -15 -73
-26 -69 -9 4 -11 1 -7 -5 4 -6 0 -15 -7 -20 -12 -8 -12 -11 1 -18 17 -11 14
-16 -17 -25 -24 -8 -23 -11 -27 76 -1 15 -7 33 -14 40 -20 20 -14 48 19 92
l31 41 -31 -32 c-42 -45 -74 -45 -34 -1 10 11 17 33 16 51 -1 18 1 26 3 20 8
-18 32 -16 51 3 14 13 14 21 2 57 -17 53 -19 87 -6 87 6 0 24 12 40 28 l29 27
-20 -36 c-19 -35 -19 -39 -4 -95 9 -33 20 -60 24 -62 4 -2 8 -13 8 -24 0 -32
10 -15 14 23 12 121 20 170 27 175 5 3 9 12 9 20 0 17 -36 19 -43 2 -3 -7 -4
1 -4 19 1 17 5 29 10 26 4 -2 7 1 7 6 0 6 7 11 15 11 8 0 15 7 15 16 0 9 5 12
11 8 8 -5 10 1 7 19 -3 15 -2 24 3 22 4 -3 10 -1 14 5 4 6 10 8 15 5 4 -3 10
2 14 10 3 10 19 15 43 15 37 0 73 14 63 24 -3 2 -55 7 -117 9 -93 4 -116 8
-141 26 -17 11 -36 21 -44 21 -7 0 -29 11 -49 24 -30 20 -37 22 -53 11z m214
-137 c0 -10 5 -18 10 -18 6 0 10 -4 10 -10 0 -19 -19 -10 -25 13 -16 54 -17
63 -6 47 6 -8 11 -23 11 -32z m-293 -30 c-3 -8 -6 -5 -6 6 -1 11 2 17 5 13 3
-3 4 -12 1 -19z m133 2 c0 -5 -8 -10 -17 -10 -15 0 -16 2 -3 10 19 12 20 12
20 0z m-82 -82 c14 -15 22 -31 18 -35 -4 -4 -11 -1 -16 7 -9 13 -10 13 -10 0
0 -24 15 -41 32 -35 19 8 28 -22 17 -53 -14 -37 -37 -26 -44 21 -4 23 -13 54
-20 69 -7 15 -16 42 -20 60 -5 29 -4 30 6 13 6 -11 23 -32 37 -47z m512 52 c0
-5 -5 -10 -11 -10 -5 0 -7 5 -4 10 3 6 8 10 11 10 2 0 4 -4 4 -10z m-395 -70
c14 -26 4 -63 -12 -46 -4 5 -3 11 4 13 8 3 6 14 -8 36 -10 18 -19 41 -18 52 0
17 2 16 11 -5 5 -14 16 -36 23 -50z m348 45 c-3 -9 -8 -14 -10 -11 -3 3 -2 9
2 15 9 16 15 13 8 -4z m-573 -9 c0 -3 -4 -8 -10 -11 -5 -3 -10 -1 -10 4 0 6 5
11 10 11 6 0 10 -2 10 -4z m625 -156 c-10 -11 -20 -18 -23 -15 -7 6 18 35 31
35 5 0 2 -9 -8 -20z m-1848 -32 c-3 -8 -6 -5 -6 6 -1 11 2 17 5 13 3 -3 4 -12
1 -19z m103 -43 c0 -5 -5 -3 -10 5 -5 8 -10 20 -10 25 0 6 5 3 10 -5 5 -8 10
-19 10 -25z m1819 3 c6 -18 20 -41 31 -53 23 -24 31 -118 12 -137 -9 -9 -12
-4 -12 19 0 18 -4 35 -10 38 -5 3 -10 17 -10 30 0 13 -4 27 -10 30 -5 3 -10
17 -10 30 0 13 -4 27 -10 30 -12 8 -13 45 -1 45 5 0 14 -14 20 -32z m-1802
-47 c7 -10 9 -22 6 -25 -12 -12 -21 -6 -25 19 -6 30 3 32 19 6z m-68 -93 c1
-5 -3 -8 -9 -8 -5 0 -10 12 -9 28 0 24 1 25 9 7 5 -11 9 -23 9 -27z m94 12
c-3 -12 -8 -19 -11 -16 -5 6 5 36 12 36 2 0 2 -9 -1 -20z m1601 -52 c4 -18 8
-41 9 -50 1 -10 5 -18 9 -18 4 0 15 -16 23 -36 17 -41 7 -102 -20 -124 -8 -7
-15 -29 -15 -49 -1 -27 -3 -32 -10 -20 -9 15 7 89 23 105 11 11 9 62 -3 69 -5
3 -10 16 -10 28 0 12 -7 35 -15 50 -14 27 -17 89 -4 81 4 -2 10 -18 13 -36z
m-1697 0 c-3 -8 -6 -5 -6 6 -1 11 2 17 5 13 3 -3 4 -12 1 -19z m-137 -68 c-20
-13 -43 -13 -35 0 3 6 16 10 28 10 18 0 19 -2 7 -10z m1461 -80 c7 -19 8 -15
3 15 l-5 40 20 -38 20 -39 -27 -24 c-28 -25 -57 -31 -67 -14 -3 6 -1 10 6 10
9 0 10 16 6 59 -4 32 -4 61 0 64 6 7 29 -31 44 -73z m-1271 24 c0 -21 -4 -33
-10 -29 -5 3 -10 22 -10 41 0 21 4 33 10 29 6 -3 10 -22 10 -41z m36 -111 c-9
-10 -35 29 -36 52 0 16 5 13 21 -13 12 -18 19 -36 15 -39z m884 -29 c51 -52
54 -57 36 -67 -30 -19 -136 -129 -131 -137 5 -8 -63 -74 -116 -113 -20 -14
-49 -40 -65 -57 -16 -16 -33 -30 -39 -30 -5 0 -3 5 5 11 13 9 13 10 0 6 -8 -2
-14 -11 -12 -20 3 -16 -54 -48 -82 -46 -6 0 -1 4 11 9 12 5 33 25 45 44 13 20
29 36 36 36 7 0 16 8 19 17 8 21 69 83 81 83 5 0 19 11 31 24 13 14 29 22 36
19 8 -2 22 0 32 7 15 9 14 10 -7 4 -19 -5 -10 8 40 57 36 35 76 72 88 82 l24
18 -27 25 c-14 13 -29 24 -32 24 -12 0 -43 33 -43 47 0 23 14 14 70 -43z m245
16 c-11 -5 -27 -9 -35 -9 -13 -1 -13 0 0 9 8 5 24 9 35 9 l20 0 -20 -9z
m-1120 -10 c3 -5 1 -10 -4 -10 -6 0 -11 5 -11 10 0 6 2 10 4 10 3 0 8 -4 11
-10z m15 -63 c0 -5 -4 -5 -10 -2 -5 3 -10 14 -10 23 0 15 2 15 10 2 5 -8 10
-19 10 -23z m20 -36 c0 -5 3 -16 6 -25 10 -26 -10 -18 -23 9 -9 20 -8 25 3 25
8 0 14 -4 14 -9z m-427 -122 c31 -7 57 -15 57 -19 0 -4 12 -10 28 -13 89 -18
132 -31 132 -38 0 -5 8 -9 18 -10 13 0 14 -2 2 -6 -8 -3 -18 -11 -22 -17 -4
-7 -25 -4 -62 7 -71 23 -108 42 -98 52 4 4 -3 4 -15 1 -17 -6 -22 -4 -18 7 4
10 -12 18 -57 29 -74 18 -47 23 35 7z m267 -119 c0 -5 -7 -10 -15 -10 -8 0
-15 5 -15 10 0 6 7 10 15 10 8 0 15 -4 15 -10z m90 -25 c19 -3 46 -15 60 -25
l25 -19 -40 10 c-22 6 -44 14 -50 18 -5 3 -26 12 -45 18 -34 12 -27 12 50 -2z
m145 -21 c20 -15 20 -16 -4 -12 -14 2 -26 9 -29 16 -5 16 9 15 33 -4z m365
-42 c0 -17 -107 -42 -178 -40 -40 0 -72 4 -72 8 0 4 41 10 91 12 50 3 96 11
102 17 13 13 57 15 57 3z m974 -19 c-3 -10 -10 -27 -14 -38 -5 -11 -13 -33
-18 -50 -15 -44 -15 -1 0 49 10 34 23 55 35 56 1 0 0 -8 -3 -17z m386 -305 c0
-7 -5 -20 -10 -28 -8 -12 -10 -9 -10 13 0 15 5 27 10 27 6 0 10 -6 10 -12z
m-2340 -109 c0 -11 -11 -11 -29 0 -7 5 -10 14 -6 20 5 9 10 9 21 0 8 -6 14
-15 14 -20z m1020 -207 c0 -7 -12 -15 -65 -41 -5 -3 -4 3 4 12 7 9 20 17 27
17 8 0 14 5 14 10 0 6 5 10 10 10 6 0 10 -4 10 -8z m-73 -58 c-3 -3 -12 -4
-19 -1 -8 3 -5 6 6 6 11 1 17 -2 13 -5z m-237 -187 c11 -5 9 -6 -4 -4 -11 1
-21 9 -23 17 -3 10 -2 11 4 4 4 -6 15 -14 23 -17z m73 -88 c4 -16 3 -18 -9 -8
-16 13 -19 29 -5 29 5 0 11 -9 14 -21z m37 -30 c0 -6 9 -22 20 -36 25 -32 29
-63 5 -39 -8 8 -15 21 -15 29 0 8 -7 17 -15 21 -17 6 -21 36 -5 36 6 0 10 -5
10 -11z m82 -121 c19 -31 29 -58 20 -58 -8 0 -52 62 -52 73 0 15 18 6 32 -15z
m57 -100 c5 -13 12 -30 15 -38 3 -8 13 -25 22 -37 9 -13 14 -23 12 -23 -3 0
-24 27 -47 60 -31 44 -38 60 -26 60 8 0 19 -10 24 -22z m-939 -13 c-7 -8 -16
-15 -21 -15 -5 0 -9 7 -9 15 0 9 9 15 21 15 18 0 19 -2 9 -15z m-160 -129 c0
-8 -4 -17 -9 -21 -12 -7 -24 12 -16 25 9 15 25 12 25 -4z m-180 -87 c0 -11 -4
-17 -10 -14 -5 3 -10 13 -10 21 0 8 5 14 10 14 6 0 10 -9 10 -21z m345 -10
c11 -17 -1 -21 -15 -4 -8 9 -8 15 -2 15 6 0 14 -5 17 -11z"/>
<path d="M4130 3375 c0 -8 5 -15 10 -15 6 0 10 7 10 15 0 8 -4 15 -10 15 -5 0
-10 -7 -10 -15z"/>
<path d="M226 3371 c-4 -7 -5 -15 -2 -18 9 -9 19 4 14 18 -4 11 -6 11 -12 0z"/>
<path d="M280 3371 c0 -5 5 -13 10 -16 6 -3 10 -2 10 4 0 5 -4 13 -10 16 -5 3
-10 2 -10 -4z"/>
<path d="M350 3365 c0 -8 5 -15 10 -15 6 0 10 7 10 15 0 8 -4 15 -10 15 -5 0
-10 -7 -10 -15z"/>
<path d="M757 3373 c-4 -3 -7 -11 -7 -17 0 -6 5 -5 12 2 6 6 9 14 7 17 -3 3
-9 2 -12 -2z"/>
<path d="M415 3360 c-3 -5 -1 -10 4 -10 6 0 11 5 11 10 0 6 -2 10 -4 10 -3 0
-8 -4 -11 -10z"/>
<path d="M4184 3334 l-22 -32 22 -6 c37 -10 54 -7 59 13 3 12 -1 18 -11 17 -9
0 -18 8 -21 20 -6 20 -8 19 -27 -12z"/>
<path d="M838 3333 c7 -3 16 -2 19 1 4 3 -2 6 -13 5 -11 0 -14 -3 -6 -6z"/>
<path d="M3407 3333 c-2 -5 4 -23 13 -41 16 -32 16 -33 34 -14 16 19 16 21
-13 41 -16 12 -31 18 -34 14z"/>
<path d="M3160 3320 c0 -12 -65 -40 -91 -40 -22 0 -23 -8 -4 -34 8 -10 19 -15
26 -10 9 5 11 1 7 -14 -4 -12 -3 -22 0 -22 4 0 7 -18 7 -40 1 -22 -2 -34 -6
-28 -6 9 -10 8 -14 -4 -5 -11 -16 -15 -43 -13 l-37 4 35 -30 c19 -16 38 -29
42 -29 5 0 23 -13 41 -29 50 -47 167 -143 167 -138 0 9 -61 67 -70 67 -6 0
-10 4 -10 8 0 5 18 9 39 10 34 2 40 -2 44 -21 3 -16 5 -14 6 9 1 41 -18 96
-33 91 -7 -3 -11 9 -12 32 0 20 -4 66 -8 104 -6 47 -5 67 3 67 28 0 7 31 -33
50 -51 23 -56 24 -56 10z m-63 -242 c-3 -8 -6 -5 -6 6 -1 11 2 17 5 13 3 -3 4
-12 1 -19z"/>
<path d="M2977 3314 c-4 -4 -7 -18 -7 -31 0 -28 23 -27 28 1 4 20 -11 40 -21
30z"/>
<path d="M2932 3211 c3 -21 1 -28 -9 -24 -28 11 -11 -17 20 -32 30 -15 31 -15
12 1 -20 16 -20 16 2 11 17 -4 20 -1 16 12 -3 9 -10 21 -15 28 -6 7 -7 17 -3
23 3 5 -1 10 -11 10 -12 0 -15 -7 -12 -29z"/>
<path d="M3720 3221 c-13 -26 -13 -31 5 -31 9 0 15 9 15 25 0 30 -6 32 -20 6z"/>
<path d="M4213 3136 c56 -42 102 -49 92 -13 -10 32 -14 35 -80 43 l-60 7 48
-37z"/>
<path d="M4120 3115 c0 -8 5 -15 10 -15 6 0 10 7 10 15 0 8 -4 15 -10 15 -5 0
-10 -7 -10 -15z"/>
<path d="M4180 3091 c0 -5 14 -14 30 -21 17 -7 37 -25 44 -39 8 -14 23 -35 35
-45 12 -11 21 -29 21 -41 0 -15 8 -25 21 -28 17 -4 19 -3 10 6 -6 6 -11 19
-11 29 0 10 -3 18 -7 18 -5 0 -13 11 -20 25 -6 14 -7 23 -3 20 4 -3 6 4 3 15
-7 27 -19 34 -27 15 -4 -12 -10 -11 -30 8 -52 47 -66 56 -66 38z"/>
<path d="M4188 3022 c-12 -2 -18 -13 -18 -32 0 -34 30 -90 48 -90 7 0 24 -7
37 -16 13 -9 30 -12 36 -8 8 4 9 3 5 -5 -9 -13 10 -41 28 -41 7 0 6 3 -2 8 -7
5 -13 25 -14 45 -1 21 -7 42 -15 48 -7 6 -13 17 -13 23 0 6 5 4 11 -4 9 -13
10 -13 6 0 -2 8 -10 14 -16 12 -6 -1 -26 13 -44 31 -19 20 -39 32 -49 29z"/>
<path d="M1120 2961 c0 -6 5 -13 10 -16 6 -3 10 -21 11 -38 0 -18 3 -26 6 -19
7 19 -6 82 -17 82 -6 0 -10 -4 -10 -9z"/>
<path d="M1085 2940 c-3 -11 -11 -20 -16 -20 -6 0 -7 -5 -4 -10 5 -8 11 -7 21
1 7 6 11 15 8 20 -3 5 0 9 5 9 6 0 11 5 11 10 0 18 -18 11 -25 -10z"/>
<path d="M4178 2873 c7 -3 16 -2 19 1 4 3 -2 6 -13 5 -11 0 -14 -3 -6 -6z"/>
<path d="M1150 2845 c0 -8 5 -15 10 -15 6 0 10 7 10 15 0 8 -4 15 -10 15 -5 0
-10 -7 -10 -15z"/>
<path d="M4202 2620 c0 -14 2 -19 5 -12 2 6 2 18 0 25 -3 6 -5 1 -5 -13z"/>
<path d="M4102 2500 c0 -19 2 -27 5 -17 2 9 2 25 0 35 -3 9 -5 1 -5 -18z"/>
<path d="M970 2462 c0 -7 4 -20 9 -30 5 -9 17 -47 26 -84 10 -38 21 -68 25
-68 4 0 11 -16 15 -36 3 -20 15 -53 26 -73 10 -20 19 -42 19 -50 0 -14 48
-121 54 -121 8 0 -12 67 -27 91 -8 13 -18 40 -22 59 -7 36 -22 75 -55 145 -10
22 -26 67 -36 100 -15 57 -34 93 -34 67z"/>
<path d="M4242 2370 c0 -19 2 -27 5 -17 2 9 2 25 0 35 -3 9 -5 1 -5 -18z"/>
<path d="M4080 2340 c0 -5 5 -10 10 -10 6 0 10 5 10 10 0 6 -4 10 -10 10 -5 0
-10 -4 -10 -10z"/>
<path d="M1376 2054 c4 -16 7 -41 7 -56 0 -16 4 -28 8 -28 3 0 9 -9 12 -21 4
-14 10 -18 18 -13 8 5 11 2 6 -8 -4 -12 3 -17 26 -21 58 -9 54 19 -10 64 -11
8 -27 34 -36 59 -17 50 -42 70 -31 24z"/>
<path d="M4020 2019 c-24 -20 -24 -20 -2 -15 51 13 62 18 62 27 0 16 -34 9
-60 -12z"/>
<path d="M4093 1971 c-25 -16 -32 -26 -31 -51 1 -18 -5 -36 -13 -41 -10 -6
-11 -9 -1 -9 13 0 33 40 25 52 -2 4 3 5 11 2 10 -4 18 1 22 12 3 11 10 27 15
37 11 21 11 21 -28 -2z"/>
<path d="M1157 1956 c8 -42 28 -50 48 -20 19 30 18 32 -22 40 -29 6 -30 4 -26
-20z"/>
<path d="M1570 1690 c0 -5 5 -10 10 -10 6 0 10 5 10 10 0 6 -4 10 -10 10 -5 0
-10 -4 -10 -10z"/>
<path d="M4170 1681 c0 -5 7 -14 15 -21 12 -10 15 -10 15 3 0 8 -7 17 -15 21
-8 3 -15 2 -15 -3z"/>
<path d="M1590 1651 c0 -5 5 -13 10 -16 6 -3 10 -2 10 4 0 5 -4 13 -10 16 -5
3 -10 2 -10 -4z"/>
<path d="M1682 1488 c-8 -8 -9 -15 -1 -25 14 -16 49 0 49 22 0 18 -31 20 -48
3z"/>
<path d="M4370 1494 c0 -16 34 -44 54 -44 12 0 16 -5 13 -14 -3 -8 1 -20 9
-26 11 -10 14 -9 14 3 0 10 6 14 15 11 8 -4 15 -12 15 -20 0 -7 6 -17 14 -21
8 -4 16 -17 18 -28 4 -21 37 -23 50 -2 8 13 -45 67 -66 67 -8 0 -28 11 -44 25
-17 14 -39 25 -50 25 -12 0 -26 8 -31 18 -6 9 -11 12 -11 6z"/>
<path d="M4607 1373 c-4 -3 -7 -11 -7 -17 0 -6 5 -5 12 2 6 6 9 14 7 17 -3 3
-9 2 -12 -2z"/>
<path d="M680 1025 c0 -8 5 -15 10 -15 6 0 10 7 10 15 0 8 -4 15 -10 15 -5 0
-10 -7 -10 -15z"/>
<path d="M620 1020 c0 -5 5 -10 11 -10 5 0 7 5 4 10 -3 6 -8 10 -11 10 -2 0
-4 -4 -4 -10z"/>
<path d="M680 960 c0 -5 5 -10 10 -10 6 0 10 5 10 10 0 6 -4 10 -10 10 -5 0
-10 -4 -10 -10z"/>
<path d="M750 960 c-13 -8 -12 -10 3 -10 9 0 17 5 17 10 0 12 -1 12 -20 0z"/>
<path d="M720 919 c0 -5 5 -7 10 -4 6 3 10 8 10 11 0 2 -4 4 -10 4 -5 0 -10
-5 -10 -11z"/>
<path d="M750 890 c0 -5 5 -10 11 -10 5 0 7 5 4 10 -3 6 -8 10 -11 10 -2 0 -4
-4 -4 -10z"/>
<path d="M798 823 c7 -3 16 -2 19 1 4 3 -2 6 -13 5 -11 0 -14 -3 -6 -6z"/>
<path d="M838 783 c7 -3 16 -2 19 1 4 3 -2 6 -13 5 -11 0 -14 -3 -6 -6z"/>
</g>
</svg>
